<svg viewBox="0 0 64 64" fill="none" xmlns="http://www.w3.org/2000/svg">
<rect width="100%" height="100%" fill="#000000"/>
<path d="M16.592 48V23.712H8.864V18.096H31.232V23.712H23.024V48H16.592ZM33.776 48V18.096H43.712C47.424 18.096 50.176 18.912 51.968 20.544C53.76 22.176 54.656 24.336 54.656 27.024C54.656 28.656 54.176 30.256 53.216 31.824C52.256 33.392 50.96 34.544 49.328 35.28L55.472 48H48.464L42.752 36.096H40.688V48H33.776ZM40.688 30.576H44.048C45.168 30.576 46.048 30.288 46.688 29.712C47.36 29.104 47.696 28.288 47.696 27.264C47.696 26.336 47.36 25.536 46.688 24.864C46.048 24.16 45.168 23.808 44.048 23.808H40.688V30.576Z" fill="white"/>
</svg>
