<svg width="106" height="27" viewBox="0 0 106 27" fill="none" xmlns="http://www.w3.org/2000/svg">
<path d="M43.1562 21.1992C43.1562 24.8711 41.3984 26.707 37.8828 26.707C36.6458 26.707 35.5651 26.4727 34.6406 26.0039V24.4023C35.7669 25.0273 36.8411 25.3398 37.8633 25.3398C40.3242 25.3398 41.5547 24.0312 41.5547 21.4141V20.3203H41.5156C40.7539 21.5964 39.6081 22.2344 38.0781 22.2344C36.8346 22.2344 35.832 21.7917 35.0703 20.9062C34.3151 20.0143 33.9375 18.8197 33.9375 17.3223C33.9375 15.623 34.3444 14.2721 35.1582 13.2695C35.9785 12.2669 37.0983 11.7656 38.5176 11.7656C39.8652 11.7656 40.8646 12.306 41.5156 13.3867H41.5547V12H43.1562V21.1992ZM41.5547 17.4785V16.0039C41.5547 15.2096 41.2845 14.5293 40.7441 13.9629C40.2103 13.3965 39.543 13.1133 38.7422 13.1133C37.7526 13.1133 36.9779 13.4746 36.418 14.1973C35.8581 14.9134 35.5781 15.9193 35.5781 17.2148C35.5781 18.3281 35.8451 19.2201 36.3789 19.8906C36.9193 20.5547 37.6322 20.8867 38.5176 20.8867C39.416 20.8867 40.1452 20.5677 40.7051 19.9297C41.2715 19.2917 41.5547 18.4746 41.5547 17.4785ZM51.2133 13.6211C50.9333 13.4062 50.5297 13.2988 50.0023 13.2988C49.3188 13.2988 48.7458 13.6211 48.2836 14.2656C47.8279 14.9102 47.6 15.7891 47.6 16.9023V22H45.9984V12H47.6V14.0605H47.6391C47.8669 13.3574 48.2152 12.8105 48.684 12.4199C49.1527 12.0228 49.6768 11.8242 50.2563 11.8242C50.6729 11.8242 50.9919 11.8698 51.2133 11.9609V13.6211ZM53.3719 9.46094C53.0854 9.46094 52.8413 9.36328 52.6395 9.16797C52.4376 8.97266 52.3367 8.72526 52.3367 8.42578C52.3367 8.1263 52.4376 7.87891 52.6395 7.68359C52.8413 7.48177 53.0854 7.38086 53.3719 7.38086C53.6648 7.38086 53.9122 7.48177 54.1141 7.68359C54.3224 7.87891 54.4266 8.1263 54.4266 8.42578C54.4266 8.71224 54.3224 8.95638 54.1141 9.1582C53.9122 9.36003 53.6648 9.46094 53.3719 9.46094ZM54.1531 22H52.5516V12H54.1531V22ZM65.0324 17.4004H57.9719C57.9979 18.5137 58.2974 19.373 58.8703 19.9785C59.4432 20.584 60.231 20.8867 61.2336 20.8867C62.3599 20.8867 63.3951 20.5156 64.3391 19.7734V21.2773C63.4602 21.9154 62.298 22.2344 60.8527 22.2344C59.44 22.2344 58.3299 21.7819 57.5227 20.877C56.7154 19.9655 56.3117 18.6862 56.3117 17.0391C56.3117 15.4831 56.7512 14.2168 57.6301 13.2402C58.5155 12.2572 59.6125 11.7656 60.9211 11.7656C62.2297 11.7656 63.2421 12.1888 63.9582 13.0352C64.6743 13.8815 65.0324 15.0566 65.0324 16.5605V17.4004ZM63.3918 16.043C63.3853 15.1185 63.1607 14.3991 62.718 13.8848C62.2818 13.3704 61.673 13.1133 60.8918 13.1133C60.1366 13.1133 59.4953 13.3835 58.968 13.9238C58.4406 14.4642 58.1151 15.1706 57.9914 16.043H63.3918ZM74.9254 12L70.941 22H69.3688L65.5797 12H67.3375L69.8766 19.2656C70.0654 19.7995 70.1826 20.265 70.2281 20.6621H70.2672C70.3323 20.1608 70.4365 19.7083 70.5797 19.3047L73.2359 12H74.9254ZM80.4336 22.2344C78.9557 22.2344 77.7741 21.7689 76.8887 20.8379C76.0098 19.9004 75.5703 18.6602 75.5703 17.1172C75.5703 15.4375 76.0293 14.1257 76.9473 13.1816C77.8652 12.2376 79.1055 11.7656 80.668 11.7656C82.1589 11.7656 83.321 12.2246 84.1543 13.1426C84.9941 14.0605 85.4141 15.3333 85.4141 16.9609C85.4141 18.556 84.9616 19.8353 84.0566 20.7988C83.1582 21.7559 81.9505 22.2344 80.4336 22.2344ZM80.5508 13.1133C79.5221 13.1133 78.7083 13.4648 78.1094 14.168C77.5104 14.8646 77.2109 15.8281 77.2109 17.0586C77.2109 18.2435 77.5137 19.1777 78.1191 19.8613C78.7246 20.5449 79.5352 20.8867 80.5508 20.8867C81.5859 20.8867 82.3802 20.5514 82.9336 19.8809C83.4935 19.2103 83.7734 18.2565 83.7734 17.0195C83.7734 15.7695 83.4935 14.806 82.9336 14.1289C82.3802 13.4518 81.5859 13.1133 80.5508 13.1133ZM95.6586 22H94.057V20.418H94.018C93.3539 21.6289 92.3253 22.2344 90.932 22.2344C88.5492 22.2344 87.3578 20.8151 87.3578 17.9766V12H88.9496V17.7227C88.9496 19.832 89.7569 20.8867 91.3715 20.8867C92.1527 20.8867 92.794 20.6003 93.2953 20.0273C93.8031 19.4479 94.057 18.6927 94.057 17.7617V12H95.6586V22ZM105.473 12.459L99.5555 20.6328H105.415V22H97.202V21.502L103.12 13.3672H97.7586V12H105.473V12.459Z" fill="#24292f"/>
<g clip-path="url(#clip0_914_97)">
<path d="M21.1636 8.78119C19.5701 8.02614 17.8614 7.46985 16.0749 7.15124C16.0424 7.14509 16.0099 7.16046 15.9931 7.19119C15.7733 7.59483 15.5299 8.12141 15.3595 8.5353C13.4379 8.23821 11.5262 8.23821 9.64408 8.5353C9.47359 8.11221 9.22134 7.59483 9.0006 7.19119C8.98384 7.16148 8.95134 7.14611 8.9188 7.15124C7.13324 7.46883 5.42454 8.02512 3.83014 8.78119C3.81634 8.78734 3.80451 8.79759 3.79666 8.8109C0.555616 13.8114 -0.33224 18.689 0.103313 23.5061C0.105283 23.5297 0.118094 23.5522 0.135831 23.5665C2.27418 25.1883 4.34553 26.1728 6.37842 26.8254C6.41095 26.8357 6.44542 26.8234 6.46613 26.7957C6.94701 26.1175 7.37567 25.4024 7.7432 24.6504C7.76489 24.6064 7.74419 24.5541 7.69986 24.5367C7.01993 24.2704 6.3725 23.9456 5.74972 23.5768C5.70046 23.5471 5.69651 23.4743 5.74183 23.4395C5.87289 23.3381 6.00398 23.2325 6.12912 23.126C6.15176 23.1065 6.18331 23.1024 6.20993 23.1147C10.3013 25.0438 14.7308 25.0438 18.7739 23.1147C18.8005 23.1014 18.8321 23.1055 18.8557 23.125C18.9809 23.2315 19.1119 23.3381 19.244 23.4395C19.2893 23.4743 19.2863 23.5471 19.2371 23.5768C18.6143 23.9528 17.9669 24.2704 17.2859 24.5357C17.2416 24.5531 17.2219 24.6064 17.2436 24.6504C17.619 25.4014 18.0477 26.1165 18.5197 26.7947C18.5394 26.8234 18.5749 26.8357 18.6074 26.8254C20.6501 26.1728 22.7215 25.1883 24.8598 23.5665C24.8786 23.5522 24.8904 23.5307 24.8924 23.5071C25.4136 17.938 24.0193 13.1004 21.1961 8.81192C21.1892 8.79759 21.1774 8.78734 21.1636 8.78119ZM8.35419 20.573C7.1224 20.573 6.10743 19.4051 6.10743 17.9708C6.10743 16.5365 7.10271 15.3687 8.35419 15.3687C9.61549 15.3687 10.6206 16.5468 10.6009 17.9708C10.6009 19.4051 9.60563 20.573 8.35419 20.573ZM16.6612 20.573C15.4294 20.573 14.4145 19.4051 14.4145 17.9708C14.4145 16.5365 15.4097 15.3687 16.6612 15.3687C17.9225 15.3687 18.9276 16.5468 18.908 17.9708C18.908 19.4051 17.9225 20.573 16.6612 20.573Z" fill="#5865F2"/>
</g>
<defs>
<clipPath id="clip0_914_97">
<rect width="25" height="20" fill="white" transform="translate(0 7)"/>
</clipPath>
</defs>
</svg>
