<svg width="960" height="200" viewBox="0 0 960 200" fill="none" xmlns="http://www.w3.org/2000/svg">
<rect width="960" height="200" rx="8" fill="black"/>
<path d="M196.164 149.781C194.57 149.026 192.861 148.47 191.075 148.151C191.042 148.145 191.01 148.16 190.993 148.191C190.773 148.595 190.53 149.121 190.359 149.535C188.438 149.238 186.526 149.238 184.644 149.535C184.474 149.112 184.221 148.595 184.001 148.191C183.984 148.161 183.951 148.146 183.919 148.151C182.133 148.469 180.425 149.025 178.83 149.781C178.816 149.787 178.805 149.797 178.797 149.811C175.556 154.811 174.668 159.689 175.103 164.506C175.105 164.529 175.118 164.552 175.136 164.566C177.274 166.188 179.346 167.173 181.378 167.825C181.411 167.835 181.445 167.823 181.466 167.795C181.947 167.117 182.376 166.402 182.743 165.65C182.765 165.606 182.744 165.554 182.7 165.537C182.02 165.27 181.373 164.945 180.75 164.577C180.7 164.547 180.697 164.474 180.742 164.439C180.873 164.338 181.004 164.232 181.129 164.126C181.152 164.106 181.183 164.102 181.21 164.115C185.301 166.044 189.731 166.044 193.774 164.115C193.801 164.101 193.832 164.105 193.856 164.125C193.981 164.231 194.112 164.338 194.244 164.439C194.289 164.474 194.286 164.547 194.237 164.577C193.614 164.953 192.967 165.27 192.286 165.535C192.242 165.553 192.222 165.606 192.244 165.65C192.619 166.401 193.048 167.116 193.52 167.794C193.539 167.823 193.575 167.835 193.607 167.825C195.65 167.173 197.721 166.188 199.86 164.566C199.879 164.552 199.89 164.53 199.892 164.507C200.414 158.938 199.019 154.1 196.196 149.812C196.189 149.797 196.177 149.787 196.164 149.781ZM183.354 161.573C182.122 161.573 181.107 160.405 181.107 158.971C181.107 157.536 182.103 156.368 183.354 156.368C184.615 156.368 185.621 157.547 185.601 158.971C185.601 160.405 184.606 161.573 183.354 161.573ZM191.661 161.573C190.429 161.573 189.414 160.405 189.414 158.971C189.414 157.536 190.41 156.368 191.661 156.368C192.923 156.368 193.928 157.547 193.908 158.971C193.908 160.405 192.923 161.573 191.661 161.573Z" fill="white"/>
<path d="M213.54 165.2C212.527 165.2 211.653 164.94 210.92 164.42C210.187 163.9 209.62 163.167 209.22 162.22C208.833 161.26 208.64 160.147 208.64 158.88C208.627 157.547 208.78 156.453 209.1 155.6C209.433 154.747 209.853 154.087 210.36 153.62C210.867 153.153 211.4 152.833 211.96 152.66C212.52 152.473 213.027 152.38 213.48 152.38C214.253 152.393 214.98 152.587 215.66 152.96C216.353 153.333 216.88 153.847 217.24 154.5L216.16 155.46L216 155.6L215.9 155.48C215.913 155.373 215.893 155.273 215.84 155.18C215.8 155.087 215.713 154.953 215.58 154.78C215.3 154.46 215 154.227 214.68 154.08C214.36 153.92 213.967 153.84 213.5 153.84C212.927 153.84 212.4 153.987 211.92 154.28C211.44 154.573 211.053 155.067 210.76 155.76C210.467 156.453 210.32 157.407 210.32 158.62C210.32 160.3 210.607 161.58 211.18 162.46C211.767 163.327 212.553 163.76 213.54 163.76C213.887 163.76 214.26 163.707 214.66 163.6C215.073 163.493 215.433 163.313 215.74 163.06V160.32H213.54V158.88H217.28V163.9C216.693 164.353 216.087 164.687 215.46 164.9C214.833 165.1 214.193 165.2 213.54 165.2ZM220.18 155.8H221.96L221.94 157.44C222.193 156.84 222.58 156.38 223.1 156.06C223.62 155.74 224.173 155.58 224.76 155.58C225.747 155.58 226.567 155.92 227.22 156.6L226.48 157.98L226.4 158.16L226.26 158.08C226.22 157.973 226.173 157.873 226.12 157.78C226.08 157.673 225.973 157.553 225.8 157.42C225.427 157.167 225.02 157.04 224.58 157.04C224.14 157.04 223.713 157.147 223.3 157.36C222.9 157.573 222.567 157.913 222.3 158.38C222.047 158.833 221.92 159.42 221.92 160.14V165.02H220.18V155.8ZM229.9 165V163.64H232.22V157.18H230.02V155.8H233.94V163.64H236.06V165H229.9ZM232.98 154.02C232.66 154.02 232.387 153.907 232.16 153.68C231.933 153.453 231.82 153.187 231.82 152.88C231.82 152.56 231.927 152.293 232.14 152.08C232.367 151.853 232.647 151.74 232.98 151.74C233.287 151.74 233.553 151.853 233.78 152.08C234.02 152.307 234.14 152.573 234.14 152.88C234.14 153.187 234.02 153.453 233.78 153.68C233.553 153.907 233.287 154.02 232.98 154.02ZM243.44 165.2C242.093 165.2 241 164.793 240.16 163.98C239.333 163.153 238.92 161.973 238.92 160.44C238.92 159.413 239.107 158.54 239.48 157.82C239.867 157.087 240.38 156.533 241.02 156.16C241.673 155.773 242.393 155.58 243.18 155.58C243.873 155.58 244.507 155.74 245.08 156.06C245.667 156.38 246.127 156.867 246.46 157.52C246.807 158.173 246.98 158.993 246.98 159.98C246.98 160.1 246.973 160.233 246.96 160.38C246.96 160.513 246.953 160.633 246.94 160.74H240.56C240.613 161.82 240.927 162.607 241.5 163.1C242.073 163.593 242.74 163.84 243.5 163.84C243.953 163.84 244.373 163.767 244.76 163.62C245.147 163.46 245.493 163.213 245.8 162.88L246.72 163.76C245.92 164.72 244.827 165.2 243.44 165.2ZM240.62 159.44H245.28C245.28 158.653 245.08 158.033 244.68 157.58C244.28 157.127 243.747 156.9 243.08 156.9C242.48 156.9 241.947 157.107 241.48 157.52C241.013 157.92 240.727 158.56 240.62 159.44ZM252.3 165L248.72 155.8H250.48L253.1 162.66L254.44 159.54C255.027 158.153 255.393 156.907 255.54 155.8H257.16C257.067 156.373 256.907 156.993 256.68 157.66C256.453 158.327 256.187 159.027 255.88 159.76L253.64 165H252.3ZM263 165.18C262.173 165.18 261.433 164.98 260.78 164.58C260.14 164.167 259.633 163.6 259.26 162.88C258.887 162.16 258.7 161.333 258.7 160.4C258.7 159.467 258.887 158.64 259.26 157.92C259.633 157.2 260.14 156.633 260.78 156.22C261.433 155.807 262.173 155.6 263 155.6C263.827 155.6 264.56 155.807 265.2 156.22C265.853 156.633 266.367 157.2 266.74 157.92C267.113 158.64 267.3 159.467 267.3 160.4C267.3 161.333 267.113 162.16 266.74 162.88C266.367 163.6 265.853 164.167 265.2 164.58C264.56 164.98 263.827 165.18 263 165.18ZM263 163.78C263.733 163.78 264.333 163.467 264.8 162.84C265.28 162.2 265.52 161.38 265.52 160.38C265.52 159.38 265.28 158.567 264.8 157.94C264.333 157.313 263.733 157 263 157C262.267 157 261.66 157.313 261.18 157.94C260.713 158.567 260.48 159.38 260.48 160.38C260.48 161.38 260.713 162.2 261.18 162.84C261.66 163.467 262.267 163.78 263 163.78ZM272.36 165.22C271.44 165.22 270.673 164.887 270.06 164.22C269.46 163.553 269.167 162.487 269.18 161.02L269.2 155.8H270.88V161.02C270.88 162.073 271.06 162.807 271.42 163.22C271.793 163.633 272.24 163.84 272.76 163.84C273.373 163.84 273.9 163.607 274.34 163.14C274.793 162.673 275.02 161.94 275.02 160.94V155.8H276.72V163.56C276.72 163.813 276.727 164.06 276.74 164.3C276.753 164.527 276.813 164.76 276.92 165H275.3C275.207 164.773 275.147 164.553 275.12 164.34C275.107 164.113 275.1 163.887 275.1 163.66C274.82 164.167 274.433 164.553 273.94 164.82C273.46 165.087 272.933 165.22 272.36 165.22ZM278.94 163.9L284.42 157.26H279.34V155.8H286.6V156.94L281.2 163.56H286.18C286.393 163.56 286.547 163.547 286.64 163.52C286.747 163.493 286.84 163.44 286.92 163.36H287.06V165H278.94V163.9ZM293.32 164.82L293.74 161.28H291.7L291.3 164.72L289.9 164.74L290.32 161.32H288.44L288.52 160.22H290.46L290.84 157.02H288.72L288.78 155.88H290.96L291.34 152.52L292.78 152.48L292.36 155.84H294.38L294.76 152.56L296.24 152.54L295.84 155.8H297.6L297.46 156.96H295.7L295.3 160.12H297.2L297.1 161.22H295.2L294.76 164.72L293.32 164.82ZM291.84 160.18H293.86L294.26 157H292.22L291.84 160.18ZM303 165.22C301.733 165.22 300.747 164.667 300.04 163.56C299.347 162.453 299 160.88 299 158.84C299 156.853 299.347 155.287 300.04 154.14C300.747 152.993 301.733 152.42 303 152.42C304.267 152.42 305.247 152.993 305.94 154.14C306.647 155.287 307 156.853 307 158.84C307 160.88 306.647 162.453 305.94 163.56C305.247 164.667 304.267 165.22 303 165.22ZM300.66 158.84C300.66 159.6 300.707 160.28 300.8 160.88L304.92 155.72C304.733 155.12 304.473 154.66 304.14 154.34C303.82 154.007 303.44 153.84 303 153.84C302.253 153.84 301.673 154.293 301.26 155.2C300.86 156.093 300.66 157.307 300.66 158.84ZM303 163.84C303.747 163.84 304.32 163.407 304.72 162.54C305.133 161.673 305.34 160.44 305.34 158.84C305.34 158.173 305.3 157.567 305.22 157.02L301.1 162.12C301.5 163.267 302.133 163.84 303 163.84ZM313 165.2C312.2 165.2 311.507 165.053 310.92 164.76C310.333 164.467 309.88 164.067 309.56 163.56C309.24 163.04 309.08 162.467 309.08 161.84C309.08 161.093 309.3 160.42 309.74 159.82C310.193 159.207 310.793 158.727 311.54 158.38C310.98 158.073 310.527 157.66 310.18 157.14C309.847 156.62 309.68 156.067 309.68 155.48C309.68 154.613 309.973 153.88 310.56 153.28C311.147 152.667 311.993 152.36 313.1 152.36C314.26 152.36 315.12 152.653 315.68 153.24C316.24 153.827 316.52 154.533 316.52 155.36C316.52 155.987 316.347 156.567 316 157.1C315.653 157.62 315.193 158.04 314.62 158.36C315.327 158.707 315.887 159.187 316.3 159.8C316.727 160.4 316.94 161.053 316.94 161.76C316.94 162.413 316.773 163 316.44 163.52C316.12 164.04 315.667 164.453 315.08 164.76C314.493 165.053 313.8 165.2 313 165.2ZM313.36 157.8C313.813 157.533 314.18 157.187 314.46 156.76C314.753 156.333 314.9 155.893 314.9 155.44C314.9 155 314.74 154.613 314.42 154.28C314.113 153.933 313.66 153.76 313.06 153.76C312.46 153.76 312.013 153.927 311.72 154.26C311.427 154.593 311.28 154.973 311.28 155.4C311.28 155.973 311.48 156.44 311.88 156.8C312.28 157.16 312.773 157.493 313.36 157.8ZM313.04 163.74C313.76 163.74 314.307 163.547 314.68 163.16C315.053 162.773 315.24 162.293 315.24 161.72C315.24 161.133 315.007 160.6 314.54 160.12C314.087 159.64 313.473 159.28 312.7 159.04C312.153 159.293 311.7 159.653 311.34 160.12C310.98 160.573 310.8 161.087 310.8 161.66C310.8 162.233 310.993 162.727 311.38 163.14C311.78 163.54 312.333 163.74 313.04 163.74ZM324.14 165V161.98H318.9V160.8L324.5 152.52H325.86V160.6H327.46V162H325.86V165H324.14ZM320.74 160.6H324.16V155.4L320.74 160.6ZM333 165.2C332.2 165.2 331.507 165.053 330.92 164.76C330.333 164.467 329.88 164.067 329.56 163.56C329.24 163.04 329.08 162.467 329.08 161.84C329.08 161.093 329.3 160.42 329.74 159.82C330.193 159.207 330.793 158.727 331.54 158.38C330.98 158.073 330.527 157.66 330.18 157.14C329.847 156.62 329.68 156.067 329.68 155.48C329.68 154.613 329.973 153.88 330.56 153.28C331.147 152.667 331.993 152.36 333.1 152.36C334.26 152.36 335.12 152.653 335.68 153.24C336.24 153.827 336.52 154.533 336.52 155.36C336.52 155.987 336.347 156.567 336 157.1C335.653 157.62 335.193 158.04 334.62 158.36C335.327 158.707 335.887 159.187 336.3 159.8C336.727 160.4 336.94 161.053 336.94 161.76C336.94 162.413 336.773 163 336.44 163.52C336.12 164.04 335.667 164.453 335.08 164.76C334.493 165.053 333.8 165.2 333 165.2ZM333.36 157.8C333.813 157.533 334.18 157.187 334.46 156.76C334.753 156.333 334.9 155.893 334.9 155.44C334.9 155 334.74 154.613 334.42 154.28C334.113 153.933 333.66 153.76 333.06 153.76C332.46 153.76 332.013 153.927 331.72 154.26C331.427 154.593 331.28 154.973 331.28 155.4C331.28 155.973 331.48 156.44 331.88 156.8C332.28 157.16 332.773 157.493 333.36 157.8ZM333.04 163.74C333.76 163.74 334.307 163.547 334.68 163.16C335.053 162.773 335.24 162.293 335.24 161.72C335.24 161.133 335.007 160.6 334.54 160.12C334.087 159.64 333.473 159.28 332.7 159.04C332.153 159.293 331.7 159.653 331.34 160.12C330.98 160.573 330.8 161.087 330.8 161.66C330.8 162.233 330.993 162.727 331.38 163.14C331.78 163.54 332.333 163.74 333.04 163.74Z" fill="white"/>
<path d="M410.578 167.918C419.574 167.918 424.494 160.287 424.494 153.67C424.494 153.454 424.49 153.238 424.48 153.023C425.435 152.316 426.265 151.434 426.92 150.43C426.044 150.829 425.101 151.097 424.111 151.218C425.121 150.598 425.896 149.618 426.262 148.449C425.317 149.022 424.27 149.439 423.156 149.664C422.264 148.691 420.993 148.082 419.586 148.082C416.885 148.082 414.694 150.325 414.694 153.089C414.694 153.482 414.737 153.864 414.821 154.231C410.756 154.021 407.151 152.029 404.739 148.999C404.319 149.739 404.077 150.598 404.077 151.516C404.077 153.253 404.94 154.787 406.253 155.684C405.451 155.659 404.697 155.433 404.038 155.058C404.038 155.079 404.038 155.099 404.038 155.122C404.038 157.547 405.723 159.572 407.962 160.031C407.551 160.145 407.118 160.207 406.672 160.207C406.357 160.207 406.051 160.175 405.753 160.117C406.375 162.106 408.181 163.554 410.322 163.595C408.648 164.938 406.539 165.738 404.247 165.738C403.853 165.738 403.463 165.715 403.08 165.669C405.245 167.089 407.815 167.918 410.578 167.918Z" fill="white"/>
<path d="M440.9 165.22C440.22 165.22 439.56 165.093 438.92 164.84C438.293 164.573 437.727 164.173 437.22 163.64C436.713 163.107 436.313 162.433 436.02 161.62C435.727 160.807 435.58 159.84 435.58 158.72C435.58 157.627 435.72 156.68 436 155.88C436.28 155.067 436.653 154.4 437.12 153.88C437.587 153.36 438.107 152.973 438.68 152.72C439.253 152.467 439.833 152.34 440.42 152.34C441.14 152.34 441.793 152.507 442.38 152.84C442.98 153.173 443.46 153.687 443.82 154.38C444.18 155.06 444.36 155.92 444.36 156.96V161.54H442.96V160.84C442.48 161.413 441.867 161.7 441.12 161.7C440.36 161.7 439.727 161.447 439.22 160.94C438.727 160.433 438.48 159.8 438.48 159.04C438.48 158.12 438.84 157.373 439.56 156.8C440.293 156.213 441.407 155.96 442.9 156.04C442.887 155.32 442.653 154.727 442.2 154.26C441.76 153.78 441.147 153.54 440.36 153.54C439.76 153.54 439.193 153.72 438.66 154.08C438.14 154.427 437.72 154.967 437.4 155.7C437.08 156.433 436.92 157.38 436.92 158.54C436.92 159.78 437.113 160.8 437.5 161.6C437.9 162.387 438.413 162.973 439.04 163.36C439.667 163.733 440.327 163.92 441.02 163.92C441.38 163.92 441.74 163.867 442.1 163.76C442.473 163.64 442.827 163.46 443.16 163.22L443.8 164.34C442.907 164.927 441.94 165.22 440.9 165.22ZM441.34 160.46C441.913 160.46 442.327 160.22 442.58 159.74C442.847 159.247 442.98 158.407 442.98 157.22C441.927 157.14 441.147 157.26 440.64 157.58C440.133 157.9 439.88 158.353 439.88 158.94C439.88 159.42 440 159.793 440.24 160.06C440.493 160.327 440.86 160.46 441.34 160.46ZM450.54 165.2C449.527 165.2 448.653 164.94 447.92 164.42C447.187 163.9 446.62 163.167 446.22 162.22C445.833 161.26 445.64 160.147 445.64 158.88C445.627 157.547 445.78 156.453 446.1 155.6C446.433 154.747 446.853 154.087 447.36 153.62C447.867 153.153 448.4 152.833 448.96 152.66C449.52 152.473 450.027 152.38 450.48 152.38C451.253 152.393 451.98 152.587 452.66 152.96C453.353 153.333 453.88 153.847 454.24 154.5L453.16 155.46L453 155.6L452.9 155.48C452.913 155.373 452.893 155.273 452.84 155.18C452.8 155.087 452.713 154.953 452.58 154.78C452.3 154.46 452 154.227 451.68 154.08C451.36 153.92 450.967 153.84 450.5 153.84C449.927 153.84 449.4 153.987 448.92 154.28C448.44 154.573 448.053 155.067 447.76 155.76C447.467 156.453 447.32 157.407 447.32 158.62C447.32 160.3 447.607 161.58 448.18 162.46C448.767 163.327 449.553 163.76 450.54 163.76C450.887 163.76 451.26 163.707 451.66 163.6C452.073 163.493 452.433 163.313 452.74 163.06V160.32H450.54V158.88H454.28V163.9C453.693 164.353 453.087 164.687 452.46 164.9C451.833 165.1 451.193 165.2 450.54 165.2ZM457.18 155.8H458.96L458.94 157.44C459.193 156.84 459.58 156.38 460.1 156.06C460.62 155.74 461.173 155.58 461.76 155.58C462.747 155.58 463.567 155.92 464.22 156.6L463.48 157.98L463.4 158.16L463.26 158.08C463.22 157.973 463.173 157.873 463.12 157.78C463.08 157.673 462.973 157.553 462.8 157.42C462.427 157.167 462.02 157.04 461.58 157.04C461.14 157.04 460.713 157.147 460.3 157.36C459.9 157.573 459.567 157.913 459.3 158.38C459.047 158.833 458.92 159.42 458.92 160.14V165.02H457.18V155.8ZM466.9 165V163.64H469.22V157.18H467.02V155.8H470.94V163.64H473.06V165H466.9ZM469.98 154.02C469.66 154.02 469.387 153.907 469.16 153.68C468.933 153.453 468.82 153.187 468.82 152.88C468.82 152.56 468.927 152.293 469.14 152.08C469.367 151.853 469.647 151.74 469.98 151.74C470.287 151.74 470.553 151.853 470.78 152.08C471.02 152.307 471.14 152.573 471.14 152.88C471.14 153.187 471.02 153.453 470.78 153.68C470.553 153.907 470.287 154.02 469.98 154.02ZM480.44 165.2C479.093 165.2 478 164.793 477.16 163.98C476.333 163.153 475.92 161.973 475.92 160.44C475.92 159.413 476.107 158.54 476.48 157.82C476.867 157.087 477.38 156.533 478.02 156.16C478.673 155.773 479.393 155.58 480.18 155.58C480.873 155.58 481.507 155.74 482.08 156.06C482.667 156.38 483.127 156.867 483.46 157.52C483.807 158.173 483.98 158.993 483.98 159.98C483.98 160.1 483.973 160.233 483.96 160.38C483.96 160.513 483.953 160.633 483.94 160.74H477.56C477.613 161.82 477.927 162.607 478.5 163.1C479.073 163.593 479.74 163.84 480.5 163.84C480.953 163.84 481.373 163.767 481.76 163.62C482.147 163.46 482.493 163.213 482.8 162.88L483.72 163.76C482.92 164.72 481.827 165.2 480.44 165.2ZM477.62 159.44H482.28C482.28 158.653 482.08 158.033 481.68 157.58C481.28 157.127 480.747 156.9 480.08 156.9C479.48 156.9 478.947 157.107 478.48 157.52C478.013 157.92 477.727 158.56 477.62 159.44ZM489.3 165L485.72 155.8H487.48L490.1 162.66L491.44 159.54C492.027 158.153 492.393 156.907 492.54 155.8H494.16C494.067 156.373 493.907 156.993 493.68 157.66C493.453 158.327 493.187 159.027 492.88 159.76L490.64 165H489.3ZM500 165.18C499.173 165.18 498.433 164.98 497.78 164.58C497.14 164.167 496.633 163.6 496.26 162.88C495.887 162.16 495.7 161.333 495.7 160.4C495.7 159.467 495.887 158.64 496.26 157.92C496.633 157.2 497.14 156.633 497.78 156.22C498.433 155.807 499.173 155.6 500 155.6C500.827 155.6 501.56 155.807 502.2 156.22C502.853 156.633 503.367 157.2 503.74 157.92C504.113 158.64 504.3 159.467 504.3 160.4C504.3 161.333 504.113 162.16 503.74 162.88C503.367 163.6 502.853 164.167 502.2 164.58C501.56 164.98 500.827 165.18 500 165.18ZM500 163.78C500.733 163.78 501.333 163.467 501.8 162.84C502.28 162.2 502.52 161.38 502.52 160.38C502.52 159.38 502.28 158.567 501.8 157.94C501.333 157.313 500.733 157 500 157C499.267 157 498.66 157.313 498.18 157.94C497.713 158.567 497.48 159.38 497.48 160.38C497.48 161.38 497.713 162.2 498.18 162.84C498.66 163.467 499.267 163.78 500 163.78ZM509.36 165.22C508.44 165.22 507.673 164.887 507.06 164.22C506.46 163.553 506.167 162.487 506.18 161.02L506.2 155.8H507.88V161.02C507.88 162.073 508.06 162.807 508.42 163.22C508.793 163.633 509.24 163.84 509.76 163.84C510.373 163.84 510.9 163.607 511.34 163.14C511.793 162.673 512.02 161.94 512.02 160.94V155.8H513.72V163.56C513.72 163.813 513.727 164.06 513.74 164.3C513.753 164.527 513.813 164.76 513.92 165H512.3C512.207 164.773 512.147 164.553 512.12 164.34C512.107 164.113 512.1 163.887 512.1 163.66C511.82 164.167 511.433 164.553 510.94 164.82C510.46 165.087 509.933 165.22 509.36 165.22ZM515.94 163.9L521.42 157.26H516.34V155.8H523.6V156.94L518.2 163.56H523.18C523.393 163.56 523.547 163.547 523.64 163.52C523.747 163.493 523.84 163.44 523.92 163.36H524.06V165H515.94V163.9ZM525.68 166.74V165.32H534.34V166.74H525.68Z" fill="white"/>
<path d="M640.98 165.16C639.833 165.16 639.053 164.767 638.64 163.98C638.24 163.193 638.073 161.893 638.14 160.08L638.24 157.18H636.32V155.8H638.3L638.38 153.52L640.16 153.3L640.36 153.28L640.38 153.42C640.313 153.513 640.253 153.613 640.2 153.72C640.16 153.813 640.127 153.967 640.1 154.18L639.98 155.8H643.1V157.18H639.98L639.84 160.14C639.8 161.113 639.827 161.86 639.92 162.38C640.013 162.9 640.173 163.26 640.4 163.46C640.627 163.66 640.927 163.76 641.3 163.76C641.74 163.76 642.127 163.673 642.46 163.5C642.807 163.327 643.153 163.113 643.5 162.86L643.94 164.16C643.047 164.827 642.06 165.16 640.98 165.16ZM649.14 165.22C648.1 165.22 647.3 164.987 646.74 164.52C646.18 164.04 645.9 163.427 645.9 162.68C645.9 162.027 646.1 161.453 646.5 160.96C646.913 160.467 647.48 160.087 648.2 159.82C648.92 159.553 649.753 159.42 650.7 159.42C650.927 159.42 651.18 159.427 651.46 159.44C651.74 159.44 652.033 159.453 652.34 159.48C652.26 158.52 652 157.867 651.56 157.52C651.133 157.16 650.533 156.98 649.76 156.98C649.32 156.98 648.893 157.06 648.48 157.22C648.08 157.38 647.7 157.633 647.34 157.98L646.46 156.92C646.927 156.467 647.447 156.133 648.02 155.92C648.607 155.707 649.22 155.6 649.86 155.6C650.66 155.6 651.367 155.733 651.98 156C652.593 156.253 653.073 156.7 653.42 157.34C653.767 157.98 653.94 158.86 653.94 159.98V165H652.12V163.74C651.773 164.34 651.32 164.74 650.76 164.94C650.213 165.127 649.673 165.22 649.14 165.22ZM647.6 162.52C647.6 163.053 647.767 163.42 648.1 163.62C648.447 163.807 648.873 163.9 649.38 163.9C650.273 163.9 650.973 163.633 651.48 163.1C652 162.567 652.293 161.78 652.36 160.74C651.813 160.687 651.28 160.66 650.76 160.66C649.76 160.66 648.98 160.813 648.42 161.12C647.873 161.427 647.6 161.893 647.6 162.52ZM655.7 165V155.8H657.22V156.64C657.433 156.307 657.7 156.047 658.02 155.86C658.34 155.673 658.667 155.58 659 155.58C659.373 155.58 659.707 155.693 660 155.92C660.307 156.147 660.507 156.46 660.6 156.86C660.787 156.46 661.06 156.147 661.42 155.92C661.78 155.693 662.187 155.58 662.64 155.58C663.28 155.58 663.747 155.807 664.04 156.26C664.333 156.713 664.467 157.307 664.44 158.04V165H662.9V158.56C662.9 158.053 662.867 157.68 662.8 157.44C662.747 157.187 662.66 157.027 662.54 156.96C662.433 156.88 662.3 156.84 662.14 156.84C661.913 156.84 661.7 156.947 661.5 157.16C661.3 157.36 661.133 157.627 661 157.96C660.88 158.28 660.82 158.62 660.82 158.98V165H659.32V158.66C659.32 157.94 659.253 157.46 659.12 157.22C659 156.98 658.773 156.86 658.44 156.86C658.16 156.86 657.887 157.04 657.62 157.4C657.367 157.747 657.24 158.247 657.24 158.9V165H655.7ZM665.7 165V155.8H667.22V156.64C667.433 156.307 667.7 156.047 668.02 155.86C668.34 155.673 668.667 155.58 669 155.58C669.373 155.58 669.707 155.693 670 155.92C670.307 156.147 670.507 156.46 670.6 156.86C670.787 156.46 671.06 156.147 671.42 155.92C671.78 155.693 672.187 155.58 672.64 155.58C673.28 155.58 673.747 155.807 674.04 156.26C674.333 156.713 674.467 157.307 674.44 158.04V165H672.9V158.56C672.9 158.053 672.867 157.68 672.8 157.44C672.747 157.187 672.66 157.027 672.54 156.96C672.433 156.88 672.3 156.84 672.14 156.84C671.913 156.84 671.7 156.947 671.5 157.16C671.3 157.36 671.133 157.627 671 157.96C670.88 158.28 670.82 158.62 670.82 158.98V165H669.32V158.66C669.32 157.94 669.253 157.46 669.12 157.22C669 156.98 668.773 156.86 668.44 156.86C668.16 156.86 667.887 157.04 667.62 157.4C667.367 157.747 667.24 158.247 667.24 158.9V165H665.7ZM680 165.18C679.173 165.18 678.433 164.98 677.78 164.58C677.14 164.167 676.633 163.6 676.26 162.88C675.887 162.16 675.7 161.333 675.7 160.4C675.7 159.467 675.887 158.64 676.26 157.92C676.633 157.2 677.14 156.633 677.78 156.22C678.433 155.807 679.173 155.6 680 155.6C680.827 155.6 681.56 155.807 682.2 156.22C682.853 156.633 683.367 157.2 683.74 157.92C684.113 158.64 684.3 159.467 684.3 160.4C684.3 161.333 684.113 162.16 683.74 162.88C683.367 163.6 682.853 164.167 682.2 164.58C681.56 164.98 680.827 165.18 680 165.18ZM680 163.78C680.733 163.78 681.333 163.467 681.8 162.84C682.28 162.2 682.52 161.38 682.52 160.38C682.52 159.38 682.28 158.567 681.8 157.94C681.333 157.313 680.733 157 680 157C679.267 157 678.66 157.313 678.18 157.94C677.713 158.567 677.48 159.38 677.48 160.38C677.48 161.38 677.713 162.2 678.18 162.84C678.66 163.467 679.267 163.78 680 163.78ZM690.9 165.22C690.22 165.22 689.56 165.093 688.92 164.84C688.293 164.573 687.727 164.173 687.22 163.64C686.713 163.107 686.313 162.433 686.02 161.62C685.727 160.807 685.58 159.84 685.58 158.72C685.58 157.627 685.72 156.68 686 155.88C686.28 155.067 686.653 154.4 687.12 153.88C687.587 153.36 688.107 152.973 688.68 152.72C689.253 152.467 689.833 152.34 690.42 152.34C691.14 152.34 691.793 152.507 692.38 152.84C692.98 153.173 693.46 153.687 693.82 154.38C694.18 155.06 694.36 155.92 694.36 156.96V161.54H692.96V160.84C692.48 161.413 691.867 161.7 691.12 161.7C690.36 161.7 689.727 161.447 689.22 160.94C688.727 160.433 688.48 159.8 688.48 159.04C688.48 158.12 688.84 157.373 689.56 156.8C690.293 156.213 691.407 155.96 692.9 156.04C692.887 155.32 692.653 154.727 692.2 154.26C691.76 153.78 691.147 153.54 690.36 153.54C689.76 153.54 689.193 153.72 688.66 154.08C688.14 154.427 687.72 154.967 687.4 155.7C687.08 156.433 686.92 157.38 686.92 158.54C686.92 159.78 687.113 160.8 687.5 161.6C687.9 162.387 688.413 162.973 689.04 163.36C689.667 163.733 690.327 163.92 691.02 163.92C691.38 163.92 691.74 163.867 692.1 163.76C692.473 163.64 692.827 163.46 693.16 163.22L693.8 164.34C692.907 164.927 691.94 165.22 690.9 165.22ZM691.34 160.46C691.913 160.46 692.327 160.22 692.58 159.74C692.847 159.247 692.98 158.407 692.98 157.22C691.927 157.14 691.147 157.26 690.64 157.58C690.133 157.9 689.88 158.353 689.88 158.94C689.88 159.42 690 159.793 690.24 160.06C690.493 160.327 690.86 160.46 691.34 160.46ZM697.18 155.8H698.96L698.94 157.44C699.193 156.84 699.58 156.38 700.1 156.06C700.62 155.74 701.173 155.58 701.76 155.58C702.747 155.58 703.567 155.92 704.22 156.6L703.48 157.98L703.4 158.16L703.26 158.08C703.22 157.973 703.173 157.873 703.12 157.78C703.08 157.673 702.973 157.553 702.8 157.42C702.427 157.167 702.02 157.04 701.58 157.04C701.14 157.04 700.713 157.147 700.3 157.36C699.9 157.573 699.567 157.913 699.3 158.38C699.047 158.833 698.92 159.42 698.92 160.14V165.02H697.18V155.8ZM710 165.18C709.173 165.18 708.433 164.98 707.78 164.58C707.14 164.167 706.633 163.6 706.26 162.88C705.887 162.16 705.7 161.333 705.7 160.4C705.7 159.467 705.887 158.64 706.26 157.92C706.633 157.2 707.14 156.633 707.78 156.22C708.433 155.807 709.173 155.6 710 155.6C710.827 155.6 711.56 155.807 712.2 156.22C712.853 156.633 713.367 157.2 713.74 157.92C714.113 158.64 714.3 159.467 714.3 160.4C714.3 161.333 714.113 162.16 713.74 162.88C713.367 163.6 712.853 164.167 712.2 164.58C711.56 164.98 710.827 165.18 710 165.18ZM710 163.78C710.733 163.78 711.333 163.467 711.8 162.84C712.28 162.2 712.52 161.38 712.52 160.38C712.52 159.38 712.28 158.567 711.8 157.94C711.333 157.313 710.733 157 710 157C709.267 157 708.66 157.313 708.18 157.94C707.713 158.567 707.48 159.38 707.48 160.38C707.48 161.38 707.713 162.2 708.18 162.84C708.66 163.467 709.267 163.78 710 163.78ZM716.32 165V155.8H718.02V157.32C718.367 156.787 718.793 156.367 719.3 156.06C719.807 155.74 720.367 155.58 720.98 155.58C721.487 155.58 721.953 155.713 722.38 155.98C722.807 156.233 723.14 156.64 723.38 157.2C723.633 157.76 723.76 158.507 723.76 159.44V165H722.08V159.48C722.08 158.587 721.927 157.953 721.62 157.58C721.327 157.193 720.953 157 720.5 157C720.127 157 719.747 157.107 719.36 157.32C718.973 157.533 718.653 157.84 718.4 158.24C718.147 158.64 718.02 159.107 718.02 159.64V165H716.32ZM729.02 160.54L727.96 161.54V165H726.22V151.66H728.14V151.82C728.06 151.9 728.007 151.987 727.98 152.08C727.967 152.173 727.96 152.333 727.96 152.56V159.72L732.2 155.76C732.573 155.827 732.96 155.86 733.36 155.86H734.08L730.28 159.48L734.66 165L732.56 165.08L729.02 160.54ZM740.44 165.2C739.093 165.2 738 164.793 737.16 163.98C736.333 163.153 735.92 161.973 735.92 160.44C735.92 159.413 736.107 158.54 736.48 157.82C736.867 157.087 737.38 156.533 738.02 156.16C738.673 155.773 739.393 155.58 740.18 155.58C740.873 155.58 741.507 155.74 742.08 156.06C742.667 156.38 743.127 156.867 743.46 157.52C743.807 158.173 743.98 158.993 743.98 159.98C743.98 160.1 743.973 160.233 743.96 160.38C743.96 160.513 743.953 160.633 743.94 160.74H737.56C737.613 161.82 737.927 162.607 738.5 163.1C739.073 163.593 739.74 163.84 740.5 163.84C740.953 163.84 741.373 163.767 741.76 163.62C742.147 163.46 742.493 163.213 742.8 162.88L743.72 163.76C742.92 164.72 741.827 165.2 740.44 165.2ZM737.62 159.44H742.28C742.28 158.653 742.08 158.033 741.68 157.58C741.28 157.127 740.747 156.9 740.08 156.9C739.48 156.9 738.947 157.107 738.48 157.52C738.013 157.92 737.727 158.56 737.62 159.44ZM749.76 165.22C749.413 165.22 749.113 165.1 748.86 164.86C748.607 164.607 748.48 164.307 748.48 163.96C748.48 163.613 748.607 163.32 748.86 163.08C749.113 162.827 749.413 162.7 749.76 162.7C750.107 162.7 750.4 162.827 750.64 163.08C750.893 163.32 751.02 163.613 751.02 163.96C751.02 164.307 750.893 164.607 750.64 164.86C750.4 165.1 750.107 165.22 749.76 165.22ZM759.62 165.2C758.98 165.2 758.367 165.027 757.78 164.68C757.207 164.32 756.733 163.78 756.36 163.06C756 162.327 755.82 161.413 755.82 160.32C755.82 159.227 756.007 158.333 756.38 157.64C756.753 156.933 757.233 156.413 757.82 156.08C758.407 155.733 759.027 155.56 759.68 155.56C760.253 155.56 760.76 155.687 761.2 155.94C761.64 156.193 761.973 156.54 762.2 156.98V151.66H764.02V151.82C763.94 151.9 763.887 151.987 763.86 152.08C763.847 152.173 763.84 152.333 763.84 152.56L763.86 163.64C763.86 163.867 763.867 164.093 763.88 164.32C763.907 164.547 763.967 164.773 764.06 165H762.38C762.273 164.773 762.213 164.56 762.2 164.36C762.187 164.16 762.18 163.947 762.18 163.72C761.9 164.187 761.54 164.553 761.1 164.82C760.673 165.073 760.18 165.2 759.62 165.2ZM759.9 163.76C760.7 163.76 761.267 163.447 761.6 162.82C761.947 162.18 762.12 161.36 762.12 160.36C762.12 159.333 761.933 158.507 761.56 157.88C761.187 157.253 760.6 156.94 759.8 156.94C759.053 156.94 758.48 157.233 758.08 157.82C757.693 158.407 757.5 159.187 757.5 160.16C757.5 161.253 757.713 162.127 758.14 162.78C758.567 163.433 759.153 163.76 759.9 163.76ZM770.44 165.2C769.093 165.2 768 164.793 767.16 163.98C766.333 163.153 765.92 161.973 765.92 160.44C765.92 159.413 766.107 158.54 766.48 157.82C766.867 157.087 767.38 156.533 768.02 156.16C768.673 155.773 769.393 155.58 770.18 155.58C770.873 155.58 771.507 155.74 772.08 156.06C772.667 156.38 773.127 156.867 773.46 157.52C773.807 158.173 773.98 158.993 773.98 159.98C773.98 160.1 773.973 160.233 773.96 160.38C773.96 160.513 773.953 160.633 773.94 160.74H767.56C767.613 161.82 767.927 162.607 768.5 163.1C769.073 163.593 769.74 163.84 770.5 163.84C770.953 163.84 771.373 163.767 771.76 163.62C772.147 163.46 772.493 163.213 772.8 162.88L773.72 163.76C772.92 164.72 771.827 165.2 770.44 165.2ZM767.62 159.44H772.28C772.28 158.653 772.08 158.033 771.68 157.58C771.28 157.127 770.747 156.9 770.08 156.9C769.48 156.9 768.947 157.107 768.48 157.52C768.013 157.92 767.727 158.56 767.62 159.44ZM779.3 165L775.72 155.8H777.48L780.1 162.66L781.44 159.54C782.027 158.153 782.393 156.907 782.54 155.8H784.16C784.067 156.373 783.907 156.993 783.68 157.66C783.453 158.327 783.187 159.027 782.88 159.76L780.64 165H779.3Z" fill="white"/>
<path d="M613.5 158.792L600.017 148H626.984L613.5 158.792ZM607.397 156.768L600 150.847V164.737L607.397 156.768ZM619.603 156.768L627 164.737V150.847L619.603 156.768ZM617.852 158.169L613.5 161.652L609.149 158.169L600.025 168H626.975L617.852 158.169Z" fill="white"/>
<path d="M165.58 43.3V41.1H174.42V43.3H165.58ZM175.58 43.3V41.1H184.42V43.3H175.58ZM185.58 43.3V41.1H194.42V43.3H185.58ZM195.58 43.3V41.1H204.42V43.3H195.58ZM205.58 43.3V41.1H214.42V43.3H205.58ZM545.58 43.3V41.1H554.42V43.3H545.58ZM555.58 43.3V41.1H564.42V43.3H555.58ZM565.58 43.3V41.1H574.42V43.3H565.58ZM575.58 43.3V41.1H584.42V43.3H575.58ZM715.58 43.3V41.1H724.42V43.3H715.58ZM158.74 64.02V47.96H161.28V64.02H158.74ZM165.58 63.3V61.1H174.42V63.3H165.58ZM205.58 63.3V61.1H214.42V63.3H205.58ZM218.74 64.02V47.96H221.28V64.02H218.74ZM225.58 63.3V61.1H234.42V63.3H225.58ZM245.58 63.3V61.1H254.42V63.3H245.58ZM265.58 63.3V61.1H274.42V63.3H265.58ZM285.58 63.3V61.1H294.42V63.3H285.58ZM295.58 63.3V61.1H304.42V63.3H295.58ZM315.58 63.3V61.1H324.42V63.3H315.58ZM325.58 63.3V61.1H334.42V63.3H325.58ZM335.58 63.3V61.1H344.42V63.3H335.58ZM365.58 63.3V61.1H374.42V63.3H365.58ZM385.58 63.3V61.1H394.42V63.3H385.58ZM395.58 63.3V61.1H404.42V63.3H395.58ZM415.58 63.3V61.1H424.42V63.3H415.58ZM425.58 63.3V61.1H434.42V63.3H425.58ZM435.58 63.3V61.1H444.42V63.3H435.58ZM475.58 63.3V61.1H484.42V63.3H475.58ZM485.58 63.3V61.1H494.42V63.3H485.58ZM495.58 63.3V61.1H504.42V63.3H495.58ZM538.74 64.02V47.96H541.28V64.02H538.74ZM565.58 63.3V61.1H574.42V63.3H565.58ZM591.82 61.94L585.7 48.88L588.34 47.66L594.44 60.72L591.82 61.94ZM605.58 63.3V61.1H614.42V63.3H605.58ZM615.58 63.3V61.1H624.42V63.3H615.58ZM625.58 63.3V61.1H634.42V63.3H625.58ZM655.58 63.3V61.1H664.42V63.3H655.58ZM675.58 63.3V61.1H684.42V63.3H675.58ZM685.58 63.3V61.1H694.42V63.3H685.58ZM708.74 64.02V47.96H711.28V64.02H708.74ZM728.74 64.02V47.96H731.28V64.02H728.74ZM745.58 63.3V61.1H754.42V63.3H745.58ZM755.58 63.3V61.1H764.42V63.3H755.58ZM765.58 63.3V61.1H774.42V63.3H765.58ZM775.58 63.3V61.1H784.42V63.3H775.58ZM785.58 63.3V61.1H794.42V63.3H785.58ZM178.74 84.02V67.96H181.28V84.02H178.74ZM198.74 84.02V67.96H201.28V84.02H198.74ZM208.36 81.88L205.68 80.76L211.76 67.64L214.36 68.96L208.36 81.88ZM225.58 83.3V81.1H234.42V83.3H225.58ZM240.04 70.96L237.7 68.02L239.62 66.66L241.26 70.2L240.04 70.96ZM258.74 84.02V67.96H261.28V84.02H258.74ZM278.8 67.7H281.2C281.2 68.5 281.187 69.14 281.16 69.62C281.133 70.1 281.1 70.5067 281.06 70.84C281.02 71.16 280.973 71.4733 280.92 71.78C280.867 72.0733 280.82 72.4333 280.78 72.86H279.22C279.18 72.4333 279.133 72.0733 279.08 71.78C279.027 71.4733 278.98 71.16 278.94 70.84C278.9 70.52 278.867 70.12 278.84 69.64C278.813 69.1467 278.8 68.5 278.8 67.7ZM285.58 83.3V81.1H294.42V83.3H285.58ZM310.04 70.96L307.7 68.02L309.62 66.66L311.26 70.2L310.04 70.96ZM325.58 83.3V81.1H334.42V83.3H325.58ZM351.82 81.94L345.7 68.88L348.34 67.66L354.44 80.72L351.82 81.94ZM358.74 84.02V67.96H361.28V84.02H358.74ZM378.8 67.7H381.2C381.2 68.5 381.187 69.14 381.16 69.62C381.133 70.1 381.1 70.5067 381.06 70.84C381.02 71.16 380.973 71.4733 380.92 71.78C380.867 72.0733 380.82 72.4333 380.78 72.86H379.22C379.18 72.4333 379.133 72.0733 379.08 71.78C379.027 71.4733 378.98 71.16 378.94 70.84C378.9 70.52 378.867 70.12 378.84 69.64C378.813 69.1467 378.8 68.5 378.8 67.7ZM385.58 83.3V81.1H394.42V83.3H385.58ZM410.04 70.96L407.7 68.02L409.62 66.66L411.26 70.2L410.04 70.96ZM425.58 83.3V81.1H434.42V83.3H425.58ZM451.82 81.94L445.7 68.88L448.34 67.66L454.44 80.72L451.82 81.94ZM468.36 81.88L465.68 80.76L471.76 67.64L474.36 68.96L468.36 81.88ZM485.58 83.3V81.1H494.42V83.3H485.58ZM511.82 81.94L505.7 68.88L508.34 67.66L514.44 80.72L511.82 81.94ZM538.74 84.02V67.96H541.28V84.02H538.74ZM558.74 84.02V67.96H561.28V84.02H558.74ZM565.58 83.3V81.1H574.42V83.3H565.58ZM577.62 83.22L576.88 81C578.227 80.3733 579.26 79.5267 579.98 78.46C580.713 77.38 581.08 76.1133 581.08 74.66C581.08 73.1533 580.74 71.9133 580.06 70.94C579.393 69.9667 578.393 69.14 577.06 68.46L577.74 66.16C579.767 67.0133 581.273 68.1867 582.26 69.68C583.26 71.1733 583.76 72.8133 583.76 74.6C583.76 75.8 583.54 76.9533 583.1 78.06C582.66 79.1533 581.987 80.14 581.08 81.02C580.173 81.9 579.02 82.6333 577.62 83.22ZM598.36 81.88L595.68 80.76L601.76 67.64L604.36 68.96L598.36 81.88ZM615.58 83.3V81.1H624.42V83.3H615.58ZM641.82 81.94L635.7 68.88L638.34 67.66L644.44 80.72L641.82 81.94ZM648.74 84.02V67.96H651.28V84.02H648.74ZM668.8 67.7H671.2C671.2 68.5 671.187 69.14 671.16 69.62C671.133 70.1 671.1 70.5067 671.06 70.84C671.02 71.16 670.973 71.4733 670.92 71.78C670.867 72.0733 670.82 72.4333 670.78 72.86H669.22C669.18 72.4333 669.133 72.0733 669.08 71.78C669.027 71.4733 668.98 71.16 668.94 70.84C668.9 70.52 668.867 70.12 668.84 69.64C668.813 69.1467 668.8 68.5 668.8 67.7ZM675.58 83.3V81.1H684.42V83.3H675.58ZM701.82 81.94L695.7 68.88L698.34 67.66L704.44 80.72L701.82 81.94ZM708.74 84.02V67.96H711.28V84.02H708.74ZM728.74 84.02V67.96H731.28V84.02H728.74ZM738.36 81.88L735.68 80.76L741.76 67.64L744.36 68.96L738.36 81.88ZM758.36 81.88L755.68 80.76L761.76 67.64L764.36 68.96L758.36 81.88ZM775.58 83.3V81.1H784.42V83.3H775.58ZM801.82 81.94L795.7 68.88L798.34 67.66L804.44 80.72L801.82 81.94ZM178.74 104.02V87.96H181.28V104.02H178.74ZM198.74 104.02V87.96H201.28V104.02H198.74ZM222.94 103.22C221.553 102.633 220.4 101.9 219.48 101.02C218.573 100.14 217.9 99.1533 217.46 98.06C217.02 96.9533 216.8 95.8 216.8 94.6C216.8 92.8133 217.293 91.1733 218.28 89.68C219.28 88.1867 220.793 87.0133 222.82 86.16L223.5 88.46C222.167 89.14 221.16 89.9667 220.48 90.94C219.813 91.9133 219.48 93.1533 219.48 94.66C219.48 96.1133 219.84 97.38 220.56 98.46C221.293 99.5267 222.333 100.373 223.68 101L222.94 103.22ZM225.58 103.3V101.1H234.42V103.3H225.58ZM238.74 104.02V87.96H241.28V104.02H238.74ZM258.74 104.02V87.96H261.28V104.02H258.74ZM278.74 104.02V87.96H281.28V104.02H278.74ZM298.74 104.02V87.96H301.28V104.02H298.74ZM318.74 104.02V87.96H321.28V104.02H318.74ZM338.74 104.02V87.96H341.28V104.02H338.74ZM358.74 104.02V87.96H361.28V104.02H358.74ZM378.74 104.02V87.96H381.28V104.02H378.74ZM398.74 104.02V87.96H401.28V104.02H398.74ZM418.74 104.02V87.96H421.28V104.02H418.74ZM438.74 104.02V87.96H441.28V104.02H438.74ZM458.74 104.02V87.96H461.28V104.02H458.74ZM482.94 103.22C481.553 102.633 480.4 101.9 479.48 101.02C478.573 100.14 477.9 99.1533 477.46 98.06C477.02 96.9533 476.8 95.8 476.8 94.6C476.8 92.8133 477.293 91.1733 478.28 89.68C479.28 88.1867 480.793 87.0133 482.82 86.16L483.5 88.46C482.167 89.14 481.16 89.9667 480.48 90.94C479.813 91.9133 479.48 93.1533 479.48 94.66C479.48 96.1133 479.84 97.38 480.56 98.46C481.293 99.5267 482.333 100.373 483.68 101L482.94 103.22ZM485.58 103.3V101.1H494.42V103.3H485.58ZM497.62 103.22L496.88 101C498.227 100.373 499.26 99.5267 499.98 98.46C500.713 97.38 501.08 96.1133 501.08 94.66C501.08 93.1533 500.74 91.9133 500.06 90.94C499.393 89.9667 498.393 89.14 497.06 88.46L497.74 86.16C499.767 87.0133 501.273 88.1867 502.26 89.68C503.26 91.1733 503.76 92.8133 503.76 94.6C503.76 95.8 503.54 96.9533 503.1 98.06C502.66 99.1533 501.987 100.14 501.08 101.02C500.173 101.9 499.02 102.633 497.62 103.22ZM538.74 104.02V87.96H541.28V104.02H538.74ZM565.58 103.3V101.1H574.42V103.3H565.58ZM594.38 100.42L585.64 95.22V93.82L594.32 89.16V91.66L588.48 94.54L594.38 97.76V100.42ZM612.94 103.22C611.553 102.633 610.4 101.9 609.48 101.02C608.573 100.14 607.9 99.1533 607.46 98.06C607.02 96.9533 606.8 95.8 606.8 94.6C606.8 92.8133 607.293 91.1733 608.28 89.68C609.28 88.1867 610.793 87.0133 612.82 86.16L613.5 88.46C612.167 89.14 611.16 89.9667 610.48 90.94C609.813 91.9133 609.48 93.1533 609.48 94.66C609.48 96.1133 609.84 97.38 610.56 98.46C611.293 99.5267 612.333 100.373 613.68 101L612.94 103.22ZM615.58 103.3V101.1H624.42V103.3H615.58ZM627.62 103.22L626.88 101C628.227 100.373 629.26 99.5267 629.98 98.46C630.713 97.38 631.08 96.1133 631.08 94.66C631.08 93.1533 630.74 91.9133 630.06 90.94C629.393 89.9667 628.393 89.14 627.06 88.46L627.74 86.16C629.767 87.0133 631.273 88.1867 632.26 89.68C633.26 91.1733 633.76 92.8133 633.76 94.6C633.76 95.8 633.54 96.9533 633.1 98.06C632.66 99.1533 631.987 100.14 631.08 101.02C630.173 101.9 629.02 102.633 627.62 103.22ZM648.74 104.02V87.96H651.28V104.02H648.74ZM668.74 104.02V87.96H671.28V104.02H668.74ZM688.74 104.02V87.96H691.28V104.02H688.74ZM708.74 104.02V87.96H711.28V104.02H708.74ZM754.38 100.42L745.64 95.22V93.82L754.32 89.16V91.66L748.48 94.54L754.38 97.76V100.42ZM775.58 103.3V101.1H784.42V103.3H775.58ZM785.58 103.3V101.1H794.42V103.3H785.58ZM798.36 101.88L795.68 100.76L801.76 87.64L804.36 88.96L798.36 101.88ZM178.74 124.02V107.96H181.28V124.02H178.74ZM185.58 123.3V121.1H194.42V123.3H185.58ZM198.74 124.02V107.96H201.28V124.02H198.74ZM211.82 121.94L205.7 108.88L208.34 107.66L214.44 120.72L211.82 121.94ZM215.58 123.3V121.1H224.42V123.3H215.58ZM225.58 123.3V121.1H234.42V123.3H225.58ZM239.46 124.44L237.86 123.14C238.233 122.793 238.5 122.467 238.66 122.16C238.833 121.867 238.92 121.613 238.92 121.4C238.92 121.187 238.847 120.993 238.7 120.82C238.567 120.633 238.427 120.42 238.28 120.18C238.133 119.94 238.06 119.64 238.06 119.28C238.06 118.773 238.24 118.393 238.6 118.14C238.973 117.887 239.387 117.76 239.84 117.76C240.467 117.76 240.94 117.967 241.26 118.38C241.593 118.793 241.76 119.333 241.76 120C241.76 120.693 241.573 121.4 241.2 122.12C240.827 122.853 240.247 123.627 239.46 124.44ZM245.58 123.3V121.1H254.42V123.3H245.58ZM258.74 124.02V107.96H261.28V124.02H258.74ZM265.58 123.3V121.1H274.42V123.3H265.58ZM278.74 124.02V107.96H281.28V124.02H278.74ZM298.74 124.02V107.96H301.28V124.02H298.74ZM305.58 123.3V121.1H314.42V123.3H305.58ZM318.74 124.02V107.96H321.28V124.02H318.74ZM338.74 124.02V107.96H341.28V124.02H338.74ZM345.58 123.3V121.1H354.42V123.3H345.58ZM358.74 124.02V107.96H361.28V124.02H358.74ZM365.58 123.3V121.1H374.42V123.3H365.58ZM378.74 124.02V107.96H381.28V124.02H378.74ZM398.74 124.02V107.96H401.28V124.02H398.74ZM405.58 123.3V121.1H414.42V123.3H405.58ZM418.74 124.02V107.96H421.28V124.02H418.74ZM438.74 124.02V107.96H441.28V124.02H438.74ZM445.58 123.3V121.1H454.42V123.3H445.58ZM458.74 124.02V107.96H461.28V124.02H458.74ZM471.82 121.94L465.7 108.88L468.34 107.66L474.44 120.72L471.82 121.94ZM475.58 123.3V121.1H484.42V123.3H475.58ZM485.58 123.3V121.1H494.42V123.3H485.58ZM495.58 123.3V121.1H504.42V123.3H495.58ZM508.36 121.88L505.68 120.76L511.76 107.64L514.36 108.96L508.36 121.88ZM538.74 124.02V107.96H541.28V124.02H538.74ZM545.58 123.3V121.1H554.42V123.3H545.58ZM558.74 124.02V107.96H561.28V124.02H558.74ZM581.82 121.94L575.7 108.88L578.34 107.66L584.44 120.72L581.82 121.94ZM585.58 123.3V121.1H594.42V123.3H585.58ZM601.82 121.94L595.7 108.88L598.34 107.66L604.44 120.72L601.82 121.94ZM605.58 123.3V121.1H614.42V123.3H605.58ZM615.58 123.3V121.1H624.42V123.3H615.58ZM625.58 123.3V121.1H634.42V123.3H625.58ZM638.36 121.88L635.68 120.76L641.76 107.64L644.36 108.96L638.36 121.88ZM648.74 124.02V107.96H651.28V124.02H648.74ZM655.58 123.3V121.1H664.42V123.3H655.58ZM668.74 124.02V107.96H671.28V124.02H668.74ZM688.74 124.02V107.96H691.28V124.02H688.74ZM695.58 123.3V121.1H704.42V123.3H695.58ZM708.74 124.02V107.96H711.28V124.02H708.74ZM715.58 123.3V121.1H724.42V123.3H715.58ZM728.74 124.02V107.96H731.28V124.02H728.74ZM741.82 121.94L735.7 108.88L738.34 107.66L744.44 120.72L741.82 121.94ZM745.58 123.3V121.1H754.42V123.3H745.58ZM761.82 121.94L755.7 108.88L758.34 107.66L764.44 120.72L761.82 121.94ZM765.58 123.3V121.1H774.42V123.3H765.58ZM775.58 123.3V121.1H784.42V123.3H775.58ZM785.58 123.3V121.1H794.42V123.3H785.58ZM798.74 124.02V107.96H801.28V124.02H798.74Z" fill="white"/>
</svg>
