<svg width="423" height="125" viewBox="0 0 423 125" fill="none" xmlns="http://www.w3.org/2000/svg">
<path d="M47.4062 118.062C45.7188 118.938 43.6198 119.375 41.1094 119.375C37.8594 119.375 35.2552 118.349 33.2969 116.297C31.3385 114.245 30.3594 111.552 30.3594 108.219C30.3594 104.635 31.4583 101.74 33.6562 99.5312C35.8646 97.3229 38.651 96.2188 42.0156 96.2188C44.1823 96.2188 45.9792 96.526 47.4062 97.1406V100.828C45.8958 99.9323 44.2292 99.4844 42.4062 99.4844C39.9792 99.4844 38.0104 100.26 36.5 101.812C35 103.365 34.25 105.438 34.25 108.031C34.25 110.5 34.9531 112.469 36.3594 113.938C37.7656 115.396 39.6146 116.125 41.9062 116.125C44.0208 116.125 45.8542 115.625 47.4062 114.625V118.062ZM63.5312 119H60.0156V116.5H59.9531C58.849 118.417 57.2292 119.375 55.0938 119.375C53.5208 119.375 52.2865 118.948 51.3906 118.094C50.5052 117.24 50.0625 116.109 50.0625 114.703C50.0625 111.682 51.8021 109.922 55.2812 109.422L60.0312 108.75C60.0312 106.469 58.9479 105.328 56.7812 105.328C54.875 105.328 53.1562 105.984 51.625 107.297V104.125C53.3125 103.125 55.2604 102.625 57.4688 102.625C61.5104 102.625 63.5312 104.615 63.5312 108.594V119ZM60.0312 111.141L56.6719 111.609C55.6302 111.745 54.8438 112 54.3125 112.375C53.7917 112.74 53.5312 113.385 53.5312 114.312C53.5312 114.99 53.7708 115.547 54.25 115.984C54.7396 116.411 55.3906 116.625 56.2031 116.625C57.3073 116.625 58.2188 116.24 58.9375 115.469C59.6667 114.688 60.0312 113.708 60.0312 112.531V111.141ZM82.2188 119H78.5938V109.984C78.5938 106.995 77.5365 105.5 75.4219 105.5C74.3177 105.5 73.4062 105.917 72.6875 106.75C71.9688 107.573 71.6094 108.615 71.6094 109.875V119H67.9688V103H71.6094V105.656H71.6719C72.8698 103.635 74.599 102.625 76.8594 102.625C78.599 102.625 79.9271 103.193 80.8438 104.328C81.7604 105.453 82.2188 107.083 82.2188 109.219V119ZM106.922 118.266C105.641 119.005 104.125 119.375 102.375 119.375C100 119.375 98.0833 118.635 96.625 117.156C95.1667 115.667 94.4375 113.74 94.4375 111.375C94.4375 108.74 95.2188 106.625 96.7812 105.031C98.3542 103.427 100.453 102.625 103.078 102.625C104.536 102.625 105.823 102.88 106.938 103.391V106.766C105.823 105.932 104.635 105.516 103.375 105.516C101.844 105.516 100.589 106.036 99.6094 107.078C98.6302 108.109 98.1406 109.464 98.1406 111.141C98.1406 112.797 98.599 114.104 99.5156 115.062C100.443 116.021 101.682 116.5 103.234 116.5C104.536 116.5 105.766 116.036 106.922 115.109V118.266ZM124.75 119H121.125V110.25C121.125 107.083 120.068 105.5 117.953 105.5C116.891 105.5 115.995 105.958 115.266 106.875C114.536 107.792 114.172 108.964 114.172 110.391V119H110.531V95.3125H114.172V105.656H114.234C115.443 103.635 117.172 102.625 119.422 102.625C122.974 102.625 124.75 104.797 124.75 109.141V119ZM141.438 119H137.922V116.5H137.859C136.755 118.417 135.135 119.375 133 119.375C131.427 119.375 130.193 118.948 129.297 118.094C128.411 117.24 127.969 116.109 127.969 114.703C127.969 111.682 129.708 109.922 133.188 109.422L137.938 108.75C137.938 106.469 136.854 105.328 134.688 105.328C132.781 105.328 131.062 105.984 129.531 107.297V104.125C131.219 103.125 133.167 102.625 135.375 102.625C139.417 102.625 141.438 104.615 141.438 108.594V119ZM137.938 111.141L134.578 111.609C133.536 111.745 132.75 112 132.219 112.375C131.698 112.74 131.438 113.385 131.438 114.312C131.438 114.99 131.677 115.547 132.156 115.984C132.646 116.411 133.297 116.625 134.109 116.625C135.214 116.625 136.125 116.24 136.844 115.469C137.573 114.688 137.938 113.708 137.938 112.531V111.141ZM144.875 118.5V115.141C146.229 116.172 147.724 116.688 149.359 116.688C151.547 116.688 152.641 116.042 152.641 114.75C152.641 114.385 152.547 114.078 152.359 113.828C152.172 113.568 151.917 113.339 151.594 113.141C151.281 112.943 150.906 112.766 150.469 112.609C150.042 112.453 149.562 112.276 149.031 112.078C148.375 111.818 147.781 111.542 147.25 111.25C146.729 110.958 146.292 110.63 145.938 110.266C145.594 109.891 145.333 109.469 145.156 109C144.979 108.531 144.891 107.984 144.891 107.359C144.891 106.589 145.073 105.911 145.438 105.328C145.802 104.734 146.292 104.24 146.906 103.844C147.521 103.438 148.219 103.135 149 102.938C149.781 102.729 150.589 102.625 151.422 102.625C152.901 102.625 154.224 102.849 155.391 103.297V106.469C154.266 105.698 152.974 105.312 151.516 105.312C151.057 105.312 150.641 105.359 150.266 105.453C149.901 105.547 149.589 105.677 149.328 105.844C149.068 106.01 148.865 106.214 148.719 106.453C148.573 106.682 148.5 106.938 148.5 107.219C148.5 107.562 148.573 107.854 148.719 108.094C148.865 108.333 149.078 108.547 149.359 108.734C149.651 108.911 149.995 109.078 150.391 109.234C150.797 109.38 151.26 109.542 151.781 109.719C152.469 110 153.083 110.286 153.625 110.578C154.177 110.87 154.646 111.203 155.031 111.578C155.417 111.943 155.714 112.37 155.922 112.859C156.13 113.339 156.234 113.911 156.234 114.578C156.234 115.391 156.047 116.099 155.672 116.703C155.297 117.307 154.797 117.807 154.172 118.203C153.547 118.599 152.823 118.891 152 119.078C151.188 119.276 150.328 119.375 149.422 119.375C147.672 119.375 146.156 119.083 144.875 118.5ZM173.234 111.984H162.328C162.37 113.464 162.823 114.604 163.688 115.406C164.562 116.208 165.76 116.609 167.281 116.609C168.99 116.609 170.557 116.099 171.984 115.078V118C170.526 118.917 168.599 119.375 166.203 119.375C163.849 119.375 162 118.651 160.656 117.203C159.323 115.745 158.656 113.698 158.656 111.062C158.656 108.573 159.391 106.547 160.859 104.984C162.339 103.411 164.172 102.625 166.359 102.625C168.547 102.625 170.24 103.328 171.438 104.734C172.635 106.141 173.234 108.094 173.234 110.594V111.984ZM169.734 109.422C169.724 108.12 169.417 107.109 168.812 106.391C168.208 105.661 167.375 105.297 166.312 105.297C165.271 105.297 164.385 105.677 163.656 106.438C162.938 107.198 162.495 108.193 162.328 109.422H169.734ZM180.078 115.266L177.656 123.062H174.938L176.656 115.266H180.078ZM204.672 118.266C203.391 119.005 201.875 119.375 200.125 119.375C197.75 119.375 195.833 118.635 194.375 117.156C192.917 115.667 192.188 113.74 192.188 111.375C192.188 108.74 192.969 106.625 194.531 105.031C196.104 103.427 198.203 102.625 200.828 102.625C202.286 102.625 203.573 102.88 204.688 103.391V106.766C203.573 105.932 202.385 105.516 201.125 105.516C199.594 105.516 198.339 106.036 197.359 107.078C196.38 108.109 195.891 109.464 195.891 111.141C195.891 112.797 196.349 114.104 197.266 115.062C198.193 116.021 199.432 116.5 200.984 116.5C202.286 116.5 203.516 116.036 204.672 115.109V118.266ZM220.562 119H217.047V116.5H216.984C215.88 118.417 214.26 119.375 212.125 119.375C210.552 119.375 209.318 118.948 208.422 118.094C207.536 117.24 207.094 116.109 207.094 114.703C207.094 111.682 208.833 109.922 212.312 109.422L217.062 108.75C217.062 106.469 215.979 105.328 213.812 105.328C211.906 105.328 210.188 105.984 208.656 107.297V104.125C210.344 103.125 212.292 102.625 214.5 102.625C218.542 102.625 220.562 104.615 220.562 108.594V119ZM217.062 111.141L213.703 111.609C212.661 111.745 211.875 112 211.344 112.375C210.823 112.74 210.562 113.385 210.562 114.312C210.562 114.99 210.802 115.547 211.281 115.984C211.771 116.411 212.422 116.625 213.234 116.625C214.339 116.625 215.25 116.24 215.969 115.469C216.698 114.688 217.062 113.708 217.062 112.531V111.141ZM239.25 119H235.625V109.984C235.625 106.995 234.568 105.5 232.453 105.5C231.349 105.5 230.438 105.917 229.719 106.75C229 107.573 228.641 108.615 228.641 109.875V119H225V103H228.641V105.656H228.703C229.901 103.635 231.63 102.625 233.891 102.625C235.63 102.625 236.958 103.193 237.875 104.328C238.792 105.453 239.25 107.083 239.25 109.219V119ZM257.938 119H254.312V109.984C254.312 106.995 253.255 105.5 251.141 105.5C250.036 105.5 249.125 105.917 248.406 106.75C247.688 107.573 247.328 108.615 247.328 109.875V119H243.688V103H247.328V105.656H247.391C248.589 103.635 250.318 102.625 252.578 102.625C254.318 102.625 255.646 103.193 256.562 104.328C257.479 105.453 257.938 107.083 257.938 109.219V119ZM269.469 119.375C267 119.375 265.026 118.63 263.547 117.141C262.078 115.641 261.344 113.656 261.344 111.188C261.344 108.5 262.109 106.401 263.641 104.891C265.182 103.38 267.255 102.625 269.859 102.625C272.359 102.625 274.307 103.359 275.703 104.828C277.099 106.297 277.797 108.333 277.797 110.938C277.797 113.49 277.042 115.536 275.531 117.078C274.031 118.609 272.01 119.375 269.469 119.375ZM269.641 105.516C268.224 105.516 267.104 106.01 266.281 107C265.458 107.99 265.047 109.354 265.047 111.094C265.047 112.771 265.464 114.094 266.297 115.062C267.13 116.021 268.245 116.5 269.641 116.5C271.068 116.5 272.161 116.026 272.922 115.078C273.693 114.13 274.078 112.781 274.078 111.031C274.078 109.271 273.693 107.911 272.922 106.953C272.161 105.995 271.068 105.516 269.641 105.516ZM289.938 118.828C289.229 119.182 288.297 119.359 287.141 119.359C284.036 119.359 282.484 117.87 282.484 114.891V105.844H279.812V103H282.484V99.2969L286.109 98.2656V103H289.938V105.844H286.109V113.844C286.109 114.792 286.281 115.469 286.625 115.875C286.969 116.281 287.542 116.484 288.344 116.484C288.958 116.484 289.49 116.307 289.938 115.953V118.828ZM313.328 118.266C312.047 119.005 310.531 119.375 308.781 119.375C306.406 119.375 304.49 118.635 303.031 117.156C301.573 115.667 300.844 113.74 300.844 111.375C300.844 108.74 301.625 106.625 303.188 105.031C304.76 103.427 306.859 102.625 309.484 102.625C310.943 102.625 312.229 102.88 313.344 103.391V106.766C312.229 105.932 311.042 105.516 309.781 105.516C308.25 105.516 306.995 106.036 306.016 107.078C305.036 108.109 304.547 109.464 304.547 111.141C304.547 112.797 305.005 114.104 305.922 115.062C306.849 116.021 308.089 116.5 309.641 116.5C310.943 116.5 312.172 116.036 313.328 115.109V118.266ZM329.219 119H325.703V116.5H325.641C324.536 118.417 322.917 119.375 320.781 119.375C319.208 119.375 317.974 118.948 317.078 118.094C316.193 117.24 315.75 116.109 315.75 114.703C315.75 111.682 317.49 109.922 320.969 109.422L325.719 108.75C325.719 106.469 324.635 105.328 322.469 105.328C320.562 105.328 318.844 105.984 317.312 107.297V104.125C319 103.125 320.948 102.625 323.156 102.625C327.198 102.625 329.219 104.615 329.219 108.594V119ZM325.719 111.141L322.359 111.609C321.318 111.745 320.531 112 320 112.375C319.479 112.74 319.219 113.385 319.219 114.312C319.219 114.99 319.458 115.547 319.938 115.984C320.427 116.411 321.078 116.625 321.891 116.625C322.995 116.625 323.906 116.24 324.625 115.469C325.354 114.688 325.719 113.708 325.719 112.531V111.141ZM342.094 118.828C341.385 119.182 340.453 119.359 339.297 119.359C336.193 119.359 334.641 117.87 334.641 114.891V105.844H331.969V103H334.641V99.2969L338.266 98.2656V103H342.094V105.844H338.266V113.844C338.266 114.792 338.438 115.469 338.781 115.875C339.125 116.281 339.698 116.484 340.5 116.484C341.115 116.484 341.646 116.307 342.094 115.953V118.828ZM356.391 118.266C355.109 119.005 353.594 119.375 351.844 119.375C349.469 119.375 347.552 118.635 346.094 117.156C344.635 115.667 343.906 113.74 343.906 111.375C343.906 108.74 344.688 106.625 346.25 105.031C347.823 103.427 349.922 102.625 352.547 102.625C354.005 102.625 355.292 102.88 356.406 103.391V106.766C355.292 105.932 354.104 105.516 352.844 105.516C351.312 105.516 350.057 106.036 349.078 107.078C348.099 108.109 347.609 109.464 347.609 111.141C347.609 112.797 348.068 114.104 348.984 115.062C349.911 116.021 351.151 116.5 352.703 116.5C354.005 116.5 355.234 116.036 356.391 115.109V118.266ZM374.219 119H370.594V110.25C370.594 107.083 369.536 105.5 367.422 105.5C366.359 105.5 365.464 105.958 364.734 106.875C364.005 107.792 363.641 108.964 363.641 110.391V119H360V95.3125H363.641V105.656H363.703C364.911 103.635 366.641 102.625 368.891 102.625C372.443 102.625 374.219 104.797 374.219 109.141V119ZM380.125 119.344C379.5 119.344 378.969 119.141 378.531 118.734C378.094 118.318 377.875 117.823 377.875 117.25C377.875 116.667 378.094 116.167 378.531 115.75C378.969 115.333 379.5 115.125 380.125 115.125C380.76 115.125 381.297 115.333 381.734 115.75C382.182 116.167 382.406 116.667 382.406 117.25C382.406 117.823 382.182 118.318 381.734 118.734C381.297 119.141 380.76 119.344 380.125 119.344Z" fill="#e6edf3"/>
<path d="M137.774 83L130 71.7598C129.903 71.6165 129.805 71.4701 129.707 71.3203C129.616 71.1706 129.541 71.0241 129.483 70.8809H129.434C129.447 70.998 129.457 71.1608 129.463 71.3691C129.476 71.5775 129.483 71.8379 129.483 72.1504V83H128.184V68.9961H129.62L137.266 80.0996C137.383 80.2754 137.487 80.4414 137.579 80.5977C137.676 80.7474 137.764 80.8874 137.842 81.0176H137.891C137.865 80.8027 137.845 80.5618 137.832 80.2949C137.819 80.028 137.813 79.7318 137.813 79.4062V68.9961H139.121V83H137.774ZM142.745 78.2246C142.751 78.8366 142.833 79.3867 142.989 79.875C143.145 80.3633 143.37 80.7767 143.663 81.1152C143.956 81.4538 144.311 81.7142 144.727 81.8965C145.151 82.0723 145.626 82.1602 146.153 82.1602C147.279 82.1602 148.344 81.7663 149.346 80.9785V82.209C148.389 82.8926 147.231 83.2344 145.87 83.2344C145.199 83.2344 144.591 83.1172 144.044 82.8828C143.497 82.6484 143.031 82.3099 142.647 81.8672C142.263 81.418 141.967 80.8678 141.759 80.2168C141.55 79.5658 141.446 78.8236 141.446 77.9902C141.446 77.2415 141.56 76.5482 141.788 75.9102C142.016 75.2721 142.332 74.722 142.735 74.2598C143.139 73.791 143.617 73.4264 144.171 73.166C144.724 72.8991 145.33 72.7656 145.987 72.7656C146.632 72.7656 147.201 72.8796 147.696 73.1074C148.191 73.3288 148.604 73.6478 148.936 74.0645C149.275 74.4811 149.532 74.9889 149.708 75.5879C149.884 76.1868 149.971 76.8574 149.971 77.5996V78.2246H142.745ZM148.682 77.1309C148.663 76.0892 148.415 75.2819 147.94 74.709C147.465 74.1361 146.804 73.8496 145.958 73.8496C145.535 73.8496 145.141 73.9245 144.776 74.0742C144.418 74.224 144.102 74.4421 143.829 74.7285C143.555 75.0085 143.328 75.3535 143.145 75.7637C142.97 76.1673 142.846 76.623 142.774 77.1309H148.682ZM155.587 83H154.396L150.568 73H151.945L154.708 80.6172C154.877 81.0794 154.985 81.4863 155.03 81.8379H155.07C155.148 81.3691 155.249 80.9753 155.372 80.6562L158.234 73H159.571L155.587 83ZM161.418 78.2246C161.424 78.8366 161.505 79.3867 161.662 79.875C161.818 80.3633 162.043 80.7767 162.336 81.1152C162.629 81.4538 162.983 81.7142 163.4 81.8965C163.823 82.0723 164.298 82.1602 164.826 82.1602C165.952 82.1602 167.017 81.7663 168.019 80.9785V82.209C167.062 82.8926 165.903 83.2344 164.543 83.2344C163.872 83.2344 163.263 83.1172 162.716 82.8828C162.17 82.6484 161.704 82.3099 161.32 81.8672C160.936 81.418 160.64 80.8678 160.431 80.2168C160.223 79.5658 160.119 78.8236 160.119 77.9902C160.119 77.2415 160.233 76.5482 160.461 75.9102C160.688 75.2721 161.004 74.722 161.408 74.2598C161.811 73.791 162.29 73.4264 162.843 73.166C163.397 72.8991 164.002 72.7656 164.66 72.7656C165.304 72.7656 165.874 72.8796 166.369 73.1074C166.864 73.3288 167.277 73.6478 167.609 74.0645C167.948 74.4811 168.205 74.9889 168.38 75.5879C168.556 76.1868 168.644 76.8574 168.644 77.5996V78.2246H161.418ZM167.355 77.1309C167.336 76.0892 167.088 75.2819 166.613 74.709C166.138 74.1361 165.477 73.8496 164.63 73.8496C164.207 73.8496 163.813 73.9245 163.449 74.0742C163.091 74.224 162.775 74.4421 162.502 74.7285C162.228 75.0085 162 75.3535 161.818 75.7637C161.642 76.1673 161.518 76.623 161.447 77.1309H167.355ZM175.656 74.2793C175.363 74.0645 174.986 73.957 174.523 73.957C174.191 73.957 173.898 74.0221 173.645 74.1523C173.391 74.276 173.166 74.4453 172.971 74.6602C172.782 74.875 172.619 75.1257 172.482 75.4121C172.352 75.6921 172.245 75.985 172.16 76.291C172.082 76.597 172.023 76.9062 171.984 77.2188C171.952 77.5312 171.936 77.8275 171.936 78.1074V83H170.695V73H171.936V75.1387H171.975C172.092 74.7741 172.238 74.4486 172.414 74.1621C172.596 73.8691 172.805 73.625 173.039 73.4297C173.273 73.2279 173.527 73.0749 173.801 72.9707C174.081 72.8665 174.374 72.8145 174.68 72.8145C174.882 72.8145 175.061 72.8275 175.217 72.8535C175.38 72.8796 175.526 72.9186 175.656 72.9707V74.2793ZM181.595 81.2031C181.783 81.3529 181.988 81.4863 182.21 81.6035C182.431 81.7207 182.659 81.8216 182.893 81.9062C183.128 81.9909 183.362 82.056 183.596 82.1016C183.837 82.1406 184.065 82.1602 184.28 82.1602C185.764 82.1602 186.507 81.6035 186.507 80.4902C186.507 80.2363 186.455 80.0182 186.35 79.8359C186.246 79.6471 186.096 79.4779 185.901 79.3281C185.706 79.1719 185.471 79.0286 185.198 78.8984C184.925 78.7682 184.615 78.6315 184.27 78.4883C183.808 78.2995 183.411 78.1074 183.079 77.9121C182.747 77.7168 182.473 77.5052 182.259 77.2773C182.044 77.043 181.884 76.7891 181.78 76.5156C181.676 76.2357 181.624 75.9199 181.624 75.5684C181.624 75.1257 181.718 74.7318 181.907 74.3867C182.102 74.0417 182.363 73.7487 182.688 73.5078C183.014 73.2669 183.388 73.0846 183.811 72.9609C184.241 72.8307 184.69 72.7656 185.159 72.7656C186.025 72.7656 186.78 72.9284 187.425 73.2539V74.5723C186.676 74.0905 185.869 73.8496 185.003 73.8496C184.69 73.8496 184.404 73.8887 184.143 73.9668C183.889 74.0449 183.671 74.1556 183.489 74.2988C183.307 74.4421 183.164 74.6146 183.059 74.8164C182.962 75.0117 182.913 75.2298 182.913 75.4707C182.913 75.7181 182.952 75.9362 183.03 76.125C183.108 76.3073 183.229 76.4733 183.391 76.623C183.561 76.7728 183.776 76.916 184.036 77.0527C184.303 77.1895 184.625 77.3359 185.003 77.4922C185.485 77.6875 185.901 77.8828 186.253 78.0781C186.604 78.2669 186.894 78.4753 187.122 78.7031C187.35 78.9245 187.519 79.1751 187.63 79.4551C187.74 79.7285 187.796 80.0475 187.796 80.4121C187.796 80.8613 187.701 81.2617 187.512 81.6133C187.33 81.9648 187.073 82.2611 186.741 82.502C186.415 82.7428 186.031 82.9251 185.589 83.0488C185.146 83.1725 184.664 83.2344 184.143 83.2344C183.134 83.2344 182.285 83.0228 181.595 82.5996V81.2031ZM194.183 82.8828C193.753 83.0977 193.284 83.2051 192.777 83.2051C191.162 83.2051 190.355 82.2741 190.355 80.4121V74.0938H188.597V73H190.355V70.4805L191.605 70.0703V73H194.183V74.0938H191.605V80.2168C191.605 80.8939 191.715 81.3822 191.937 81.6816C192.158 81.9811 192.532 82.1309 193.06 82.1309C193.45 82.1309 193.825 82.0137 194.183 81.7793V82.8828ZM199.789 83.2344C199.046 83.2344 198.379 83.1107 197.787 82.8633C197.201 82.6159 196.699 82.2676 196.283 81.8184C195.866 81.3626 195.547 80.819 195.326 80.1875C195.104 79.556 194.994 78.8561 194.994 78.0879C194.994 77.2546 195.111 76.5091 195.345 75.8516C195.58 75.194 195.912 74.6374 196.341 74.1816C196.778 73.7194 197.302 73.3678 197.914 73.127C198.526 72.8861 199.209 72.7656 199.964 72.7656C200.687 72.7656 201.338 72.8861 201.918 73.127C202.497 73.3613 202.989 73.7031 203.392 74.1523C203.796 74.6016 204.105 75.1484 204.32 75.793C204.535 76.4375 204.642 77.1699 204.642 77.9902C204.642 78.7715 204.528 79.4844 204.3 80.1289C204.079 80.7669 203.76 81.3171 203.343 81.7793C202.927 82.2415 202.419 82.5996 201.82 82.8535C201.221 83.1074 200.544 83.2344 199.789 83.2344ZM199.886 73.8496C199.339 73.8496 198.845 73.944 198.402 74.1328C197.959 74.3216 197.578 74.5983 197.259 74.9629C196.947 75.321 196.706 75.7637 196.537 76.291C196.367 76.8118 196.283 77.4043 196.283 78.0684C196.283 78.6934 196.367 79.2565 196.537 79.7578C196.706 80.2591 196.944 80.6888 197.25 81.0469C197.562 81.4049 197.94 81.6816 198.382 81.877C198.825 82.0658 199.32 82.1602 199.867 82.1602C200.427 82.1602 200.921 82.069 201.351 81.8867C201.781 81.6979 202.145 81.4277 202.445 81.0762C202.744 80.7181 202.969 80.2819 203.119 79.7676C203.275 79.2533 203.353 78.6673 203.353 78.0098C203.353 76.6621 203.054 75.6335 202.455 74.9238C201.856 74.2077 201 73.8496 199.886 73.8496ZM208.012 81.3887V87.5996H206.762V73H208.012V74.9141H208.051C208.422 74.2174 208.917 73.6868 209.535 73.3223C210.16 72.9512 210.863 72.7656 211.645 72.7656C212.283 72.7656 212.852 72.8828 213.354 73.1172C213.861 73.3451 214.288 73.6706 214.633 74.0938C214.984 74.5169 215.251 75.0312 215.434 75.6367C215.622 76.2422 215.717 76.9225 215.717 77.6777C215.717 78.5046 215.613 79.2598 215.404 79.9434C215.196 80.6204 214.896 81.2031 214.506 81.6914C214.115 82.1797 213.64 82.5605 213.08 82.834C212.527 83.1009 211.902 83.2344 211.205 83.2344C209.799 83.2344 208.747 82.6191 208.051 81.3887H208.012ZM208.012 78.8398C208.012 79.2956 208.087 79.7253 208.236 80.1289C208.393 80.526 208.607 80.8776 208.881 81.1836C209.154 81.4831 209.483 81.7207 209.867 81.8965C210.258 82.0723 210.688 82.1602 211.156 82.1602C211.658 82.1602 212.11 82.056 212.514 81.8477C212.917 81.6328 213.259 81.3301 213.539 80.9395C213.826 80.5488 214.044 80.0768 214.193 79.5234C214.35 78.9701 214.428 78.3516 214.428 77.668C214.428 77.082 214.356 76.5547 214.213 76.0859C214.07 75.6107 213.865 75.207 213.598 74.875C213.337 74.543 213.018 74.2891 212.641 74.1133C212.27 73.9375 211.853 73.8496 211.391 73.8496C210.87 73.8496 210.401 73.9473 209.984 74.1426C209.568 74.3314 209.213 74.5918 208.92 74.9238C208.627 75.2559 208.402 75.6465 208.246 76.0957C208.09 76.5384 208.012 77.0104 208.012 77.5117V78.8398ZM217.28 81.2031C217.468 81.3529 217.674 81.4863 217.895 81.6035C218.116 81.7207 218.344 81.8216 218.579 81.9062C218.813 81.9909 219.047 82.056 219.282 82.1016C219.523 82.1406 219.75 82.1602 219.965 82.1602C221.45 82.1602 222.192 81.6035 222.192 80.4902C222.192 80.2363 222.14 80.0182 222.036 79.8359C221.931 79.6471 221.782 79.4779 221.586 79.3281C221.391 79.1719 221.157 79.0286 220.883 78.8984C220.61 78.7682 220.301 78.6315 219.955 78.4883C219.493 78.2995 219.096 78.1074 218.764 77.9121C218.432 77.7168 218.159 77.5052 217.944 77.2773C217.729 77.043 217.569 76.7891 217.465 76.5156C217.361 76.2357 217.309 75.9199 217.309 75.5684C217.309 75.1257 217.403 74.7318 217.592 74.3867C217.787 74.0417 218.048 73.7487 218.373 73.5078C218.699 73.2669 219.073 73.0846 219.496 72.9609C219.926 72.8307 220.375 72.7656 220.844 72.7656C221.71 72.7656 222.465 72.9284 223.11 73.2539V74.5723C222.361 74.0905 221.554 73.8496 220.688 73.8496C220.375 73.8496 220.089 73.8887 219.829 73.9668C219.575 74.0449 219.357 74.1556 219.174 74.2988C218.992 74.4421 218.849 74.6146 218.745 74.8164C218.647 75.0117 218.598 75.2298 218.598 75.4707C218.598 75.7181 218.637 75.9362 218.715 76.125C218.793 76.3073 218.914 76.4733 219.077 76.623C219.246 76.7728 219.461 76.916 219.721 77.0527C219.988 77.1895 220.31 77.3359 220.688 77.4922C221.17 77.6875 221.586 77.8828 221.938 78.0781C222.289 78.2669 222.579 78.4753 222.807 78.7031C223.035 78.9245 223.204 79.1751 223.315 79.4551C223.426 79.7285 223.481 80.0475 223.481 80.4121C223.481 80.8613 223.386 81.2617 223.198 81.6133C223.015 81.9648 222.758 82.2611 222.426 82.502C222.101 82.7428 221.717 82.9251 221.274 83.0488C220.831 83.1725 220.349 83.2344 219.829 83.2344C218.819 83.2344 217.97 83.0228 217.28 82.5996V81.2031ZM243.228 83V77.1211C243.228 76.5221 243.182 76.0176 243.091 75.6074C243 75.1908 242.857 74.8522 242.661 74.5918C242.473 74.3314 242.228 74.1426 241.929 74.0254C241.636 73.9082 241.284 73.8496 240.874 73.8496C240.51 73.8496 240.165 73.9375 239.839 74.1133C239.514 74.2826 239.227 74.5202 238.98 74.8262C238.739 75.1257 238.547 75.4805 238.404 75.8906C238.267 76.3008 238.198 76.7435 238.198 77.2188V83H236.948V76.9941C236.948 74.8978 236.144 73.8496 234.536 73.8496C234.165 73.8496 233.82 73.9342 233.501 74.1035C233.182 74.2663 232.902 74.4974 232.661 74.7969C232.427 75.0964 232.241 75.4577 232.105 75.8809C231.974 76.2975 231.909 76.7598 231.909 77.2676V83H230.659V73H231.909V74.6211H231.948C232.652 73.3841 233.677 72.7656 235.025 72.7656C235.376 72.7656 235.708 72.821 236.021 72.9316C236.333 73.0358 236.613 73.1855 236.861 73.3809C237.108 73.5697 237.32 73.7975 237.495 74.0645C237.678 74.3314 237.814 74.6243 237.905 74.9434C238.257 74.2337 238.713 73.6934 239.273 73.3223C239.839 72.9512 240.477 72.7656 241.187 72.7656C243.381 72.7656 244.478 74.1198 244.478 76.8281V83H243.228ZM251.187 83.2344C250.445 83.2344 249.778 83.1107 249.185 82.8633C248.599 82.6159 248.098 82.2676 247.681 81.8184C247.265 81.3626 246.946 80.819 246.724 80.1875C246.503 79.556 246.392 78.8561 246.392 78.0879C246.392 77.2546 246.509 76.5091 246.744 75.8516C246.978 75.194 247.31 74.6374 247.74 74.1816C248.176 73.7194 248.7 73.3678 249.312 73.127C249.924 72.8861 250.608 72.7656 251.363 72.7656C252.086 72.7656 252.737 72.8861 253.316 73.127C253.895 73.3613 254.387 73.7031 254.791 74.1523C255.194 74.6016 255.504 75.1484 255.718 75.793C255.933 76.4375 256.041 77.1699 256.041 77.9902C256.041 78.7715 255.927 79.4844 255.699 80.1289C255.477 80.7669 255.158 81.3171 254.742 81.7793C254.325 82.2415 253.817 82.5996 253.218 82.8535C252.619 83.1074 251.942 83.2344 251.187 83.2344ZM251.285 73.8496C250.738 73.8496 250.243 73.944 249.8 74.1328C249.358 74.3216 248.977 74.5983 248.658 74.9629C248.345 75.321 248.104 75.7637 247.935 76.291C247.766 76.8118 247.681 77.4043 247.681 78.0684C247.681 78.6934 247.766 79.2565 247.935 79.7578C248.104 80.2591 248.342 80.6888 248.648 81.0469C248.961 81.4049 249.338 81.6816 249.781 81.877C250.224 82.0658 250.718 82.1602 251.265 82.1602C251.825 82.1602 252.32 82.069 252.75 81.8867C253.179 81.6979 253.544 81.4277 253.843 81.0762C254.143 80.7181 254.367 80.2819 254.517 79.7676C254.673 79.2533 254.752 78.6673 254.752 78.0098C254.752 76.6621 254.452 75.6335 253.853 74.9238C253.254 74.2077 252.398 73.8496 251.285 73.8496ZM261.725 83H260.533L256.705 73H258.082L260.846 80.6172C261.015 81.0794 261.122 81.4863 261.168 81.8379H261.207C261.285 81.3691 261.386 80.9753 261.51 80.6562L264.371 73H265.709L261.725 83ZM267.692 70.4707C267.451 70.4707 267.243 70.3861 267.067 70.2168C266.891 70.0475 266.803 69.8327 266.803 69.5723C266.803 69.3184 266.891 69.11 267.067 68.9473C267.243 68.778 267.451 68.6934 267.692 68.6934C267.816 68.6934 267.933 68.7161 268.043 68.7617C268.154 68.8008 268.248 68.8594 268.327 68.9375C268.411 69.0156 268.476 69.11 268.522 69.2207C268.574 69.3249 268.6 69.4421 268.6 69.5723C268.6 69.696 268.577 69.8132 268.532 69.9238C268.486 70.0345 268.421 70.1322 268.336 70.2168C268.252 70.2949 268.154 70.3568 268.043 70.4023C267.939 70.4479 267.822 70.4707 267.692 70.4707ZM267.077 83V73H268.327V83H267.077ZM277.897 83V77.2383C277.897 74.9792 277.077 73.8496 275.436 73.8496C275 73.8496 274.596 73.9375 274.225 74.1133C273.854 74.2826 273.532 74.5202 273.259 74.8262C272.992 75.1322 272.78 75.4967 272.624 75.9199C272.474 76.3366 272.399 76.7891 272.399 77.2773V83H271.149V73H272.399V74.7383H272.438C273.18 73.4232 274.297 72.7656 275.788 72.7656C276.882 72.7656 277.715 73.1204 278.288 73.8301C278.861 74.5397 279.147 75.5651 279.147 76.9062V83H277.897ZM290.027 82.2285C290.027 84.084 289.603 85.4577 288.757 86.3496C287.917 87.248 286.618 87.6973 284.861 87.6973C283.767 87.6973 282.732 87.4531 281.755 86.9648V85.6953C282.842 86.3008 283.877 86.6035 284.861 86.6035C287.471 86.6035 288.777 85.2233 288.777 82.4629V81.2617H288.737C287.969 82.5768 286.797 83.2344 285.222 83.2344C284.603 83.2344 284.037 83.1204 283.523 82.8926C283.015 82.6647 282.579 82.3359 282.214 81.9062C281.849 81.4766 281.566 80.9557 281.364 80.3438C281.163 79.7253 281.062 79.0286 281.062 78.2539C281.062 77.4336 281.169 76.6882 281.384 76.0176C281.599 75.3405 281.905 74.7611 282.302 74.2793C282.699 73.7975 283.178 73.4264 283.737 73.166C284.304 72.8991 284.939 72.7656 285.642 72.7656C287.055 72.7656 288.086 73.3385 288.737 74.4844H288.777V73H290.027V82.2285ZM288.777 76.9258C288.777 76.5091 288.702 76.1152 288.552 75.7441C288.402 75.373 288.194 75.0475 287.927 74.7676C287.66 74.4876 287.341 74.2663 286.97 74.1035C286.605 73.9342 286.202 73.8496 285.759 73.8496C285.238 73.8496 284.766 73.9505 284.343 74.1523C283.926 74.3542 283.568 74.6406 283.269 75.0117C282.976 75.3828 282.748 75.8353 282.585 76.3691C282.429 76.8965 282.351 77.4922 282.351 78.1562C282.351 78.7682 282.426 79.3216 282.575 79.8164C282.725 80.3112 282.937 80.7311 283.21 81.0762C283.484 81.4212 283.812 81.6882 284.196 81.877C284.587 82.0658 285.02 82.1602 285.495 82.1602C285.99 82.1602 286.439 82.0723 286.843 81.8965C287.247 81.7142 287.592 81.4668 287.878 81.1543C288.165 80.8353 288.386 80.4642 288.542 80.041C288.698 79.6113 288.777 79.1491 288.777 78.6543V76.9258ZM293.425 83.1953C293.165 83.1953 292.944 83.1042 292.761 82.9219C292.579 82.7396 292.488 82.5182 292.488 82.2578C292.488 81.9909 292.576 81.7663 292.752 81.584C292.934 81.4017 293.158 81.3105 293.425 81.3105C293.556 81.3105 293.676 81.3366 293.787 81.3887C293.904 81.4342 294.005 81.4993 294.089 81.584C294.174 81.6621 294.242 81.7598 294.295 81.877C294.347 81.9941 294.373 82.1211 294.373 82.2578C294.373 82.388 294.347 82.5117 294.295 82.6289C294.242 82.7396 294.174 82.8372 294.089 82.9219C294.005 83.0065 293.904 83.0716 293.787 83.1172C293.676 83.1693 293.556 83.1953 293.425 83.1953Z" fill="#e6edf3"/>
<path d="M6.5 44.875V53H2.79688V30.5938H9.59375C12.1667 30.5938 14.1615 31.1927 15.5781 32.3906C16.9948 33.5885 17.7031 35.276 17.7031 37.4531C17.7031 39.6302 16.9635 41.4115 15.4844 42.7969C14.0052 44.1823 12.0052 44.875 9.48438 44.875H6.5ZM6.5 33.6562V41.8438H8.90625C10.5 41.8438 11.7135 41.474 12.5469 40.7344C13.3802 39.9948 13.7969 38.9531 13.7969 37.6094C13.7969 34.974 12.2656 33.6562 9.20312 33.6562H6.5ZM33.5625 45.9844H22.6562C22.6979 47.4635 23.151 48.6042 24.0156 49.4062C24.8906 50.2083 26.0885 50.6094 27.6094 50.6094C29.3177 50.6094 30.8854 50.099 32.3125 49.0781V52C30.8542 52.9167 28.9271 53.375 26.5312 53.375C24.1771 53.375 22.3281 52.651 20.9844 51.2031C19.651 49.7448 18.9844 47.6979 18.9844 45.0625C18.9844 42.5729 19.7188 40.5469 21.1875 38.9844C22.6667 37.4115 24.5 36.625 26.6875 36.625C28.875 36.625 30.5677 37.3281 31.7656 38.7344C32.9635 40.1406 33.5625 42.0938 33.5625 44.5938V45.9844ZM30.0625 43.4219C30.0521 42.1198 29.7448 41.1094 29.1406 40.3906C28.5365 39.6615 27.7031 39.2969 26.6406 39.2969C25.599 39.2969 24.7135 39.6771 23.9844 40.4375C23.2656 41.1979 22.8229 42.1927 22.6562 43.4219H30.0625ZM46.2969 40.4531C45.8594 40.1094 45.2292 39.9375 44.4062 39.9375C43.3333 39.9375 42.4375 40.4219 41.7188 41.3906C41 42.3594 40.6406 43.6771 40.6406 45.3438V53H37.0156V37H40.6406V40.2969H40.7031C41.0573 39.1719 41.599 38.2969 42.3281 37.6719C43.0677 37.0365 43.8906 36.7188 44.7969 36.7188C45.4531 36.7188 45.9531 36.8177 46.2969 37.0156V40.4531ZM58.5938 32.2656C58.1042 31.9844 57.5469 31.8438 56.9219 31.8438C55.1615 31.8438 54.2812 32.8385 54.2812 34.8281V37H58V39.8438H54.2969V53H50.6719V39.8438H47.9375V37H50.6719V34.4062C50.6719 32.7188 51.224 31.3906 52.3281 30.4219C53.4323 29.4427 54.8125 28.9531 56.4688 28.9531C57.3646 28.9531 58.0729 29.0521 58.5938 29.25V32.2656ZM74.125 45.9844H63.2188C63.2604 47.4635 63.7135 48.6042 64.5781 49.4062C65.4531 50.2083 66.651 50.6094 68.1719 50.6094C69.8802 50.6094 71.4479 50.099 72.875 49.0781V52C71.4167 52.9167 69.4896 53.375 67.0938 53.375C64.7396 53.375 62.8906 52.651 61.5469 51.2031C60.2135 49.7448 59.5469 47.6979 59.5469 45.0625C59.5469 42.5729 60.2812 40.5469 61.75 38.9844C63.2292 37.4115 65.0625 36.625 67.25 36.625C69.4375 36.625 71.1302 37.3281 72.3281 38.7344C73.526 40.1406 74.125 42.0938 74.125 44.5938V45.9844ZM70.625 43.4219C70.6146 42.1198 70.3073 41.1094 69.7031 40.3906C69.099 39.6615 68.2656 39.2969 67.2031 39.2969C66.1615 39.2969 65.276 39.6771 64.5469 40.4375C63.8281 41.1979 63.3854 42.1927 63.2188 43.4219H70.625ZM89.0312 52.2656C87.75 53.0052 86.2344 53.375 84.4844 53.375C82.1094 53.375 80.1927 52.6354 78.7344 51.1562C77.276 49.6667 76.5469 47.7396 76.5469 45.375C76.5469 42.7396 77.3281 40.625 78.8906 39.0312C80.4635 37.4271 82.5625 36.625 85.1875 36.625C86.6458 36.625 87.9323 36.8802 89.0469 37.3906V40.7656C87.9323 39.9323 86.7448 39.5156 85.4844 39.5156C83.9531 39.5156 82.6979 40.0365 81.7188 41.0781C80.7396 42.1094 80.25 43.4635 80.25 45.1406C80.25 46.7969 80.7083 48.1042 81.625 49.0625C82.5521 50.0208 83.7917 50.5 85.3438 50.5C86.6458 50.5 87.875 50.0365 89.0312 49.1094V52.2656ZM101.078 52.8281C100.37 53.1823 99.4375 53.3594 98.2812 53.3594C95.1771 53.3594 93.625 51.8698 93.625 48.8906V39.8438H90.9531V37H93.625V33.2969L97.25 32.2656V37H101.078V39.8438H97.25V47.8438C97.25 48.7917 97.4219 49.4688 97.7656 49.875C98.1094 50.2812 98.6823 50.4844 99.4844 50.4844C100.099 50.4844 100.63 50.3073 101.078 49.9531V52.8281ZM106.031 33.6406C105.438 33.6406 104.927 33.4479 104.5 33.0625C104.083 32.6771 103.875 32.1875 103.875 31.5938C103.875 31 104.083 30.5052 104.5 30.1094C104.927 29.7135 105.438 29.5156 106.031 29.5156C106.646 29.5156 107.167 29.7135 107.594 30.1094C108.021 30.5052 108.234 31 108.234 31.5938C108.234 32.1562 108.021 32.6406 107.594 33.0469C107.167 33.4427 106.646 33.6406 106.031 33.6406ZM107.828 53H104.203V37H107.828V53ZM119.672 53.375C117.203 53.375 115.229 52.6302 113.75 51.1406C112.281 49.6406 111.547 47.6562 111.547 45.1875C111.547 42.5 112.312 40.401 113.844 38.8906C115.385 37.3802 117.458 36.625 120.062 36.625C122.562 36.625 124.51 37.3594 125.906 38.8281C127.302 40.2969 128 42.3333 128 44.9375C128 47.4896 127.245 49.5365 125.734 51.0781C124.234 52.6094 122.214 53.375 119.672 53.375ZM119.844 39.5156C118.427 39.5156 117.307 40.0104 116.484 41C115.661 41.9896 115.25 43.3542 115.25 45.0938C115.25 46.7708 115.667 48.0938 116.5 49.0625C117.333 50.0208 118.448 50.5 119.844 50.5C121.271 50.5 122.365 50.026 123.125 49.0781C123.896 48.1302 124.281 46.7812 124.281 45.0312C124.281 43.2708 123.896 41.9115 123.125 40.9531C122.365 39.9948 121.271 39.5156 119.844 39.5156ZM145.953 53H142.328V43.9844C142.328 40.9948 141.271 39.5 139.156 39.5C138.052 39.5 137.141 39.9167 136.422 40.75C135.703 41.5729 135.344 42.6146 135.344 43.875V53H131.703V37H135.344V39.6562H135.406C136.604 37.6354 138.333 36.625 140.594 36.625C142.333 36.625 143.661 37.1927 144.578 38.3281C145.495 39.4531 145.953 41.0833 145.953 43.2188V53ZM173.766 51.7188C173.766 57.5938 170.812 60.5312 164.906 60.5312C162.823 60.5312 161.005 60.1823 159.453 59.4844V56.1719C161.203 57.1719 162.865 57.6719 164.438 57.6719C168.24 57.6719 170.141 55.8021 170.141 52.0625V50.3125H170.078C168.88 52.3542 167.078 53.375 164.672 53.375C162.724 53.375 161.151 52.6667 159.953 51.25C158.766 49.8229 158.172 47.9115 158.172 45.5156C158.172 42.7969 158.812 40.6354 160.094 39.0312C161.375 37.4271 163.135 36.625 165.375 36.625C167.49 36.625 169.057 37.4896 170.078 39.2188H170.141V37H173.766V51.7188ZM170.172 45.6719V43.5938C170.172 42.4688 169.797 41.5104 169.047 40.7188C168.307 39.9167 167.38 39.5156 166.266 39.5156C164.891 39.5156 163.812 40.026 163.031 41.0469C162.26 42.0573 161.875 43.474 161.875 45.2969C161.875 46.8698 162.245 48.1302 162.984 49.0781C163.734 50.0156 164.724 50.4844 165.953 50.4844C167.203 50.4844 168.219 50.0365 169 49.1406C169.781 48.2344 170.172 47.0781 170.172 45.6719ZM185.578 53.375C183.109 53.375 181.135 52.6302 179.656 51.1406C178.188 49.6406 177.453 47.6562 177.453 45.1875C177.453 42.5 178.219 40.401 179.75 38.8906C181.292 37.3802 183.365 36.625 185.969 36.625C188.469 36.625 190.417 37.3594 191.812 38.8281C193.208 40.2969 193.906 42.3333 193.906 44.9375C193.906 47.4896 193.151 49.5365 191.641 51.0781C190.141 52.6094 188.12 53.375 185.578 53.375ZM185.75 39.5156C184.333 39.5156 183.214 40.0104 182.391 41C181.568 41.9896 181.156 43.3542 181.156 45.0938C181.156 46.7708 181.573 48.0938 182.406 49.0625C183.24 50.0208 184.354 50.5 185.75 50.5C187.177 50.5 188.271 50.026 189.031 49.0781C189.802 48.1302 190.188 46.7812 190.188 45.0312C190.188 43.2708 189.802 41.9115 189.031 40.9531C188.271 39.9948 187.177 39.5156 185.75 39.5156ZM209.516 53H206V50.5H205.938C204.833 52.4167 203.214 53.375 201.078 53.375C199.505 53.375 198.271 52.9479 197.375 52.0938C196.49 51.2396 196.047 50.1094 196.047 48.7031C196.047 45.6823 197.786 43.9219 201.266 43.4219L206.016 42.75C206.016 40.4688 204.932 39.3281 202.766 39.3281C200.859 39.3281 199.141 39.9844 197.609 41.2969V38.125C199.297 37.125 201.245 36.625 203.453 36.625C207.495 36.625 209.516 38.6146 209.516 42.5938V53ZM206.016 45.1406L202.656 45.6094C201.615 45.7448 200.828 46 200.297 46.375C199.776 46.7396 199.516 47.3854 199.516 48.3125C199.516 48.9896 199.755 49.5469 200.234 49.9844C200.724 50.4115 201.375 50.625 202.188 50.625C203.292 50.625 204.203 50.2396 204.922 49.4688C205.651 48.6875 206.016 47.7083 206.016 46.5312V45.1406ZM217.594 53H213.953V29.3125H217.594V53ZM239.578 52.8281C238.87 53.1823 237.938 53.3594 236.781 53.3594C233.677 53.3594 232.125 51.8698 232.125 48.8906V39.8438H229.453V37H232.125V33.2969L235.75 32.2656V37H239.578V39.8438H235.75V47.8438C235.75 48.7917 235.922 49.4688 236.266 49.875C236.609 50.2812 237.182 50.4844 237.984 50.4844C238.599 50.4844 239.13 50.3073 239.578 49.9531V52.8281ZM256.922 53H253.297V44.25C253.297 41.0833 252.24 39.5 250.125 39.5C249.062 39.5 248.167 39.9583 247.438 40.875C246.708 41.7917 246.344 42.9635 246.344 44.3906V53H242.703V29.3125H246.344V39.6562H246.406C247.615 37.6354 249.344 36.625 251.594 36.625C255.146 36.625 256.922 38.7969 256.922 43.1406V53ZM273.609 53H270.094V50.5H270.031C268.927 52.4167 267.307 53.375 265.172 53.375C263.599 53.375 262.365 52.9479 261.469 52.0938C260.583 51.2396 260.141 50.1094 260.141 48.7031C260.141 45.6823 261.88 43.9219 265.359 43.4219L270.109 42.75C270.109 40.4688 269.026 39.3281 266.859 39.3281C264.953 39.3281 263.234 39.9844 261.703 41.2969V38.125C263.391 37.125 265.339 36.625 267.547 36.625C271.589 36.625 273.609 38.6146 273.609 42.5938V53ZM270.109 45.1406L266.75 45.6094C265.708 45.7448 264.922 46 264.391 46.375C263.87 46.7396 263.609 47.3854 263.609 48.3125C263.609 48.9896 263.849 49.5469 264.328 49.9844C264.818 50.4115 265.469 50.625 266.281 50.625C267.385 50.625 268.297 50.2396 269.016 49.4688C269.745 48.6875 270.109 47.7083 270.109 46.5312V45.1406ZM286.484 52.8281C285.776 53.1823 284.844 53.3594 283.688 53.3594C280.583 53.3594 279.031 51.8698 279.031 48.8906V39.8438H276.359V37H279.031V33.2969L282.656 32.2656V37H286.484V39.8438H282.656V47.8438C282.656 48.7917 282.828 49.4688 283.172 49.875C283.516 50.2812 284.089 50.4844 284.891 50.4844C285.505 50.4844 286.036 50.3073 286.484 49.9531V52.8281ZM309.875 52.2656C308.594 53.0052 307.078 53.375 305.328 53.375C302.953 53.375 301.036 52.6354 299.578 51.1562C298.12 49.6667 297.391 47.7396 297.391 45.375C297.391 42.7396 298.172 40.625 299.734 39.0312C301.307 37.4271 303.406 36.625 306.031 36.625C307.49 36.625 308.776 36.8802 309.891 37.3906V40.7656C308.776 39.9323 307.589 39.5156 306.328 39.5156C304.797 39.5156 303.542 40.0365 302.562 41.0781C301.583 42.1094 301.094 43.4635 301.094 45.1406C301.094 46.7969 301.552 48.1042 302.469 49.0625C303.396 50.0208 304.635 50.5 306.188 50.5C307.49 50.5 308.719 50.0365 309.875 49.1094V52.2656ZM327.703 53H324.078V44.25C324.078 41.0833 323.021 39.5 320.906 39.5C319.844 39.5 318.948 39.9583 318.219 40.875C317.49 41.7917 317.125 42.9635 317.125 44.3906V53H313.484V29.3125H317.125V39.6562H317.188C318.396 37.6354 320.125 36.625 322.375 36.625C325.927 36.625 327.703 38.7969 327.703 43.1406V53ZM344.391 53H340.875V50.5H340.812C339.708 52.4167 338.089 53.375 335.953 53.375C334.38 53.375 333.146 52.9479 332.25 52.0938C331.365 51.2396 330.922 50.1094 330.922 48.7031C330.922 45.6823 332.661 43.9219 336.141 43.4219L340.891 42.75C340.891 40.4688 339.807 39.3281 337.641 39.3281C335.734 39.3281 334.016 39.9844 332.484 41.2969V38.125C334.172 37.125 336.12 36.625 338.328 36.625C342.37 36.625 344.391 38.6146 344.391 42.5938V53ZM340.891 45.1406L337.531 45.6094C336.49 45.7448 335.703 46 335.172 46.375C334.651 46.7396 334.391 47.3854 334.391 48.3125C334.391 48.9896 334.63 49.5469 335.109 49.9844C335.599 50.4115 336.25 50.625 337.062 50.625C338.167 50.625 339.078 50.2396 339.797 49.4688C340.526 48.6875 340.891 47.7083 340.891 46.5312V45.1406ZM363.078 53H359.453V43.9844C359.453 40.9948 358.396 39.5 356.281 39.5C355.177 39.5 354.266 39.9167 353.547 40.75C352.828 41.5729 352.469 42.6146 352.469 43.875V53H348.828V37H352.469V39.6562H352.531C353.729 37.6354 355.458 36.625 357.719 36.625C359.458 36.625 360.786 37.1927 361.703 38.3281C362.62 39.4531 363.078 41.0833 363.078 43.2188V53ZM382.078 51.7188C382.078 57.5938 379.125 60.5312 373.219 60.5312C371.135 60.5312 369.318 60.1823 367.766 59.4844V56.1719C369.516 57.1719 371.177 57.6719 372.75 57.6719C376.552 57.6719 378.453 55.8021 378.453 52.0625V50.3125H378.391C377.193 52.3542 375.391 53.375 372.984 53.375C371.036 53.375 369.464 52.6667 368.266 51.25C367.078 49.8229 366.484 47.9115 366.484 45.5156C366.484 42.7969 367.125 40.6354 368.406 39.0312C369.688 37.4271 371.448 36.625 373.688 36.625C375.802 36.625 377.37 37.4896 378.391 39.2188H378.453V37H382.078V51.7188ZM378.484 45.6719V43.5938C378.484 42.4688 378.109 41.5104 377.359 40.7188C376.62 39.9167 375.693 39.5156 374.578 39.5156C373.203 39.5156 372.125 40.026 371.344 41.0469C370.573 42.0573 370.188 43.474 370.188 45.2969C370.188 46.8698 370.557 48.1302 371.297 49.0781C372.047 50.0156 373.036 50.4844 374.266 50.4844C375.516 50.4844 376.531 50.0365 377.312 49.1406C378.094 48.2344 378.484 47.0781 378.484 45.6719ZM400.344 45.9844H389.438C389.479 47.4635 389.932 48.6042 390.797 49.4062C391.672 50.2083 392.87 50.6094 394.391 50.6094C396.099 50.6094 397.667 50.099 399.094 49.0781V52C397.635 52.9167 395.708 53.375 393.312 53.375C390.958 53.375 389.109 52.651 387.766 51.2031C386.432 49.7448 385.766 47.6979 385.766 45.0625C385.766 42.5729 386.5 40.5469 387.969 38.9844C389.448 37.4115 391.281 36.625 393.469 36.625C395.656 36.625 397.349 37.3281 398.547 38.7344C399.745 40.1406 400.344 42.0938 400.344 44.5938V45.9844ZM396.844 43.4219C396.833 42.1198 396.526 41.1094 395.922 40.3906C395.318 39.6615 394.484 39.2969 393.422 39.2969C392.38 39.2969 391.495 39.6771 390.766 40.4375C390.047 41.1979 389.604 42.1927 389.438 43.4219H396.844ZM402.797 52.5V49.1406C404.151 50.1719 405.646 50.6875 407.281 50.6875C409.469 50.6875 410.562 50.0417 410.562 48.75C410.562 48.3854 410.469 48.0781 410.281 47.8281C410.094 47.5677 409.839 47.3385 409.516 47.1406C409.203 46.9427 408.828 46.7656 408.391 46.6094C407.964 46.4531 407.484 46.276 406.953 46.0781C406.297 45.8177 405.703 45.5417 405.172 45.25C404.651 44.9583 404.214 44.6302 403.859 44.2656C403.516 43.8906 403.255 43.4688 403.078 43C402.901 42.5312 402.812 41.9844 402.812 41.3594C402.812 40.5885 402.995 39.9115 403.359 39.3281C403.724 38.7344 404.214 38.2396 404.828 37.8438C405.443 37.4375 406.141 37.1354 406.922 36.9375C407.703 36.7292 408.51 36.625 409.344 36.625C410.823 36.625 412.146 36.849 413.312 37.2969V40.4688C412.188 39.6979 410.896 39.3125 409.438 39.3125C408.979 39.3125 408.562 39.3594 408.188 39.4531C407.823 39.5469 407.51 39.6771 407.25 39.8438C406.99 40.0104 406.786 40.2135 406.641 40.4531C406.495 40.6823 406.422 40.9375 406.422 41.2188C406.422 41.5625 406.495 41.8542 406.641 42.0938C406.786 42.3333 407 42.5469 407.281 42.7344C407.573 42.9115 407.917 43.0781 408.312 43.2344C408.719 43.3802 409.182 43.5417 409.703 43.7188C410.391 44 411.005 44.2865 411.547 44.5781C412.099 44.8698 412.568 45.2031 412.953 45.5781C413.339 45.9427 413.635 46.3698 413.844 46.8594C414.052 47.3385 414.156 47.9115 414.156 48.5781C414.156 49.3906 413.969 50.099 413.594 50.7031C413.219 51.3073 412.719 51.8073 412.094 52.2031C411.469 52.599 410.745 52.8906 409.922 53.0781C409.109 53.276 408.25 53.375 407.344 53.375C405.594 53.375 404.078 53.0833 402.797 52.5ZM419.109 53.3438C418.484 53.3438 417.953 53.1406 417.516 52.7344C417.078 52.3177 416.859 51.8229 416.859 51.25C416.859 50.6667 417.078 50.1667 417.516 49.75C417.953 49.3333 418.484 49.125 419.109 49.125C419.745 49.125 420.281 49.3333 420.719 49.75C421.167 50.1667 421.391 50.6667 421.391 51.25C421.391 51.8229 421.167 52.3177 420.719 52.7344C420.281 53.1406 419.745 53.3438 419.109 53.3438Z" fill="#e6edf3"/>
<path d="M164.85 17L157.077 5.75977C156.979 5.61654 156.881 5.47005 156.784 5.32031C156.692 5.17057 156.618 5.02409 156.559 4.88086H156.51C156.523 4.99805 156.533 5.16081 156.539 5.36914C156.552 5.57747 156.559 5.83789 156.559 6.15039V17H155.26V2.99609H156.696L164.342 14.0996C164.459 14.2754 164.564 14.4414 164.655 14.5977C164.752 14.7474 164.84 14.8874 164.918 15.0176H164.967C164.941 14.8027 164.922 14.5618 164.909 14.2949C164.896 14.028 164.889 13.7318 164.889 13.4062V2.99609H166.198V17H164.85ZM169.821 12.2246C169.828 12.8366 169.909 13.3867 170.065 13.875C170.221 14.3633 170.446 14.7767 170.739 15.1152C171.032 15.4538 171.387 15.7142 171.804 15.8965C172.227 16.0723 172.702 16.1602 173.229 16.1602C174.356 16.1602 175.42 15.7663 176.423 14.9785V16.209C175.466 16.8926 174.307 17.2344 172.946 17.2344C172.276 17.2344 171.667 17.1172 171.12 16.8828C170.573 16.6484 170.108 16.3099 169.723 15.8672C169.339 15.418 169.043 14.8678 168.835 14.2168C168.626 13.5658 168.522 12.8236 168.522 11.9902C168.522 11.2415 168.636 10.5482 168.864 9.91016C169.092 9.27214 169.408 8.72201 169.811 8.25977C170.215 7.79102 170.693 7.42643 171.247 7.16602C171.8 6.89909 172.406 6.76562 173.063 6.76562C173.708 6.76562 174.277 6.87956 174.772 7.10742C175.267 7.32878 175.68 7.64779 176.012 8.06445C176.351 8.48112 176.608 8.98893 176.784 9.58789C176.96 10.1868 177.048 10.8574 177.048 11.5996V12.2246H169.821ZM175.759 11.1309C175.739 10.0892 175.492 9.2819 175.016 8.70898C174.541 8.13607 173.88 7.84961 173.034 7.84961C172.611 7.84961 172.217 7.92448 171.852 8.07422C171.494 8.22396 171.179 8.44206 170.905 8.72852C170.632 9.00846 170.404 9.35352 170.221 9.76367C170.046 10.1673 169.922 10.623 169.85 11.1309H175.759ZM182.663 17H181.472L177.644 7H179.021L181.784 14.6172C181.954 15.0794 182.061 15.4863 182.107 15.8379H182.146C182.224 15.3691 182.325 14.9753 182.448 14.6562L185.31 7H186.648L182.663 17ZM188.494 12.2246C188.5 12.8366 188.582 13.3867 188.738 13.875C188.894 14.3633 189.119 14.7767 189.412 15.1152C189.705 15.4538 190.06 15.7142 190.476 15.8965C190.899 16.0723 191.375 16.1602 191.902 16.1602C193.028 16.1602 194.093 15.7663 195.095 14.9785V16.209C194.138 16.8926 192.979 17.2344 191.619 17.2344C190.948 17.2344 190.339 17.1172 189.793 16.8828C189.246 16.6484 188.78 16.3099 188.396 15.8672C188.012 15.418 187.716 14.8678 187.507 14.2168C187.299 13.5658 187.195 12.8236 187.195 11.9902C187.195 11.2415 187.309 10.5482 187.537 9.91016C187.765 9.27214 188.08 8.72201 188.484 8.25977C188.888 7.79102 189.366 7.42643 189.92 7.16602C190.473 6.89909 191.078 6.76562 191.736 6.76562C192.38 6.76562 192.95 6.87956 193.445 7.10742C193.94 7.32878 194.353 7.64779 194.685 8.06445C195.024 8.48112 195.281 8.98893 195.457 9.58789C195.632 10.1868 195.72 10.8574 195.72 11.5996V12.2246H188.494ZM194.431 11.1309C194.412 10.0892 194.164 9.2819 193.689 8.70898C193.214 8.13607 192.553 7.84961 191.707 7.84961C191.283 7.84961 190.89 7.92448 190.525 8.07422C190.167 8.22396 189.851 8.44206 189.578 8.72852C189.304 9.00846 189.076 9.35352 188.894 9.76367C188.718 10.1673 188.595 10.623 188.523 11.1309H194.431ZM202.732 8.2793C202.439 8.06445 202.062 7.95703 201.6 7.95703C201.268 7.95703 200.975 8.02214 200.721 8.15234C200.467 8.27604 200.242 8.44531 200.047 8.66016C199.858 8.875 199.695 9.12565 199.559 9.41211C199.428 9.69206 199.321 9.98503 199.236 10.291C199.158 10.597 199.1 10.9062 199.061 11.2188C199.028 11.5312 199.012 11.8275 199.012 12.1074V17H197.771V7H199.012V9.13867H199.051C199.168 8.77409 199.314 8.44857 199.49 8.16211C199.673 7.86914 199.881 7.625 200.115 7.42969C200.35 7.22786 200.604 7.07487 200.877 6.9707C201.157 6.86654 201.45 6.81445 201.756 6.81445C201.958 6.81445 202.137 6.82747 202.293 6.85352C202.456 6.87956 202.602 6.91862 202.732 6.9707V8.2793ZM210.741 11.5508V17H209.442V2.99609H213.055C213.791 2.99609 214.442 3.08724 215.009 3.26953C215.575 3.45182 216.054 3.71549 216.444 4.06055C216.835 4.4056 217.131 4.82878 217.333 5.33008C217.535 5.83138 217.636 6.4043 217.636 7.04883C217.636 7.69987 217.522 8.30208 217.294 8.85547C217.066 9.40234 216.737 9.8776 216.307 10.2812C215.884 10.6784 215.367 10.9909 214.755 11.2188C214.143 11.4401 213.449 11.5508 212.675 11.5508H210.741ZM210.741 4.1875V10.3594H212.596C213.801 10.3594 214.716 10.0794 215.341 9.51953C215.966 8.95964 216.278 8.16862 216.278 7.14648C216.278 5.17383 215.126 4.1875 212.821 4.1875H210.741ZM219.726 12.2246C219.732 12.8366 219.814 13.3867 219.97 13.875C220.126 14.3633 220.351 14.7767 220.644 15.1152C220.937 15.4538 221.292 15.7142 221.708 15.8965C222.131 16.0723 222.607 16.1602 223.134 16.1602C224.26 16.1602 225.325 15.7663 226.327 14.9785V16.209C225.37 16.8926 224.211 17.2344 222.851 17.2344C222.18 17.2344 221.571 17.1172 221.025 16.8828C220.478 16.6484 220.012 16.3099 219.628 15.8672C219.244 15.418 218.948 14.8678 218.739 14.2168C218.531 13.5658 218.427 12.8236 218.427 11.9902C218.427 11.2415 218.541 10.5482 218.769 9.91016C218.997 9.27214 219.312 8.72201 219.716 8.25977C220.12 7.79102 220.598 7.42643 221.152 7.16602C221.705 6.89909 222.31 6.76562 222.968 6.76562C223.612 6.76562 224.182 6.87956 224.677 7.10742C225.172 7.32878 225.585 7.64779 225.917 8.06445C226.256 8.48112 226.513 8.98893 226.689 9.58789C226.864 10.1868 226.952 10.8574 226.952 11.5996V12.2246H219.726ZM225.663 11.1309C225.644 10.0892 225.396 9.2819 224.921 8.70898C224.446 8.13607 223.785 7.84961 222.939 7.84961C222.515 7.84961 222.122 7.92448 221.757 8.07422C221.399 8.22396 221.083 8.44206 220.81 8.72852C220.536 9.00846 220.308 9.35352 220.126 9.76367C219.95 10.1673 219.827 10.623 219.755 11.1309H225.663ZM233.964 8.2793C233.671 8.06445 233.294 7.95703 232.832 7.95703C232.5 7.95703 232.207 8.02214 231.953 8.15234C231.699 8.27604 231.474 8.44531 231.279 8.66016C231.09 8.875 230.927 9.12565 230.791 9.41211C230.66 9.69206 230.553 9.98503 230.468 10.291C230.39 10.597 230.332 10.9062 230.293 11.2188C230.26 11.5312 230.244 11.8275 230.244 12.1074V17H229.004V7H230.244V9.13867H230.283C230.4 8.77409 230.546 8.44857 230.722 8.16211C230.905 7.86914 231.113 7.625 231.347 7.42969C231.582 7.22786 231.836 7.07487 232.109 6.9707C232.389 6.86654 232.682 6.81445 232.988 6.81445C233.19 6.81445 233.369 6.82747 233.525 6.85352C233.688 6.87956 233.834 6.91862 233.964 6.9707V8.2793ZM240.43 3.37695C240.15 3.19466 239.788 3.10352 239.346 3.10352C238.174 3.10352 237.588 3.86849 237.588 5.39844V7H240.078V8.09375H237.588V17H236.338V8.09375H234.59V7H236.338V5.32031C236.338 4.81901 236.4 4.36654 236.523 3.96289C236.654 3.55273 236.842 3.20443 237.09 2.91797C237.337 2.625 237.646 2.40039 238.018 2.24414C238.395 2.08789 238.828 2.00977 239.316 2.00977C239.785 2.00977 240.156 2.07161 240.43 2.19531V3.37695ZM241.866 12.2246C241.872 12.8366 241.954 13.3867 242.11 13.875C242.266 14.3633 242.491 14.7767 242.784 15.1152C243.077 15.4538 243.431 15.7142 243.848 15.8965C244.271 16.0723 244.746 16.1602 245.274 16.1602C246.4 16.1602 247.465 15.7663 248.467 14.9785V16.209C247.51 16.8926 246.351 17.2344 244.991 17.2344C244.32 17.2344 243.711 17.1172 243.164 16.8828C242.618 16.6484 242.152 16.3099 241.768 15.8672C241.384 15.418 241.088 14.8678 240.879 14.2168C240.671 13.5658 240.567 12.8236 240.567 11.9902C240.567 11.2415 240.681 10.5482 240.909 9.91016C241.136 9.27214 241.452 8.72201 241.856 8.25977C242.26 7.79102 242.738 7.42643 243.291 7.16602C243.845 6.89909 244.45 6.76562 245.108 6.76562C245.752 6.76562 246.322 6.87956 246.817 7.10742C247.312 7.32878 247.725 7.64779 248.057 8.06445C248.396 8.48112 248.653 8.98893 248.829 9.58789C249.004 10.1868 249.092 10.8574 249.092 11.5996V12.2246H241.866ZM247.803 11.1309C247.784 10.0892 247.536 9.2819 247.061 8.70898C246.586 8.13607 245.925 7.84961 245.079 7.84961C244.655 7.84961 244.261 7.92448 243.897 8.07422C243.539 8.22396 243.223 8.44206 242.95 8.72852C242.676 9.00846 242.448 9.35352 242.266 9.76367C242.09 10.1673 241.967 10.623 241.895 11.1309H247.803ZM257.794 16.5508C257.052 17 256.153 17.2311 255.098 17.2441C254.382 17.2507 253.738 17.127 253.165 16.873C252.592 16.6191 252.104 16.2676 251.7 15.8184C251.296 15.3626 250.987 14.8288 250.772 14.2168C250.557 13.5983 250.45 12.9277 250.45 12.2051C250.45 11.4564 250.564 10.7533 250.792 10.0957C251.02 9.43164 251.352 8.85547 251.788 8.36719C252.224 7.8724 252.758 7.48177 253.389 7.19531C254.021 6.90885 254.744 6.76562 255.557 6.76562C256.384 6.76562 257.139 6.92513 257.823 7.24414V8.57227C257.094 8.09049 256.306 7.84961 255.46 7.84961C254.867 7.84961 254.34 7.96354 253.878 8.19141C253.415 8.41276 253.025 8.71875 252.706 9.10938C252.393 9.49349 252.152 9.94596 251.983 10.4668C251.82 10.9811 251.739 11.528 251.739 12.1074C251.739 12.6413 251.807 13.1523 251.944 13.6406C252.087 14.1289 252.302 14.5618 252.589 14.9395C252.882 15.3105 253.249 15.6068 253.692 15.8281C254.135 16.0495 254.656 16.1602 255.255 16.1602C256.192 16.1602 257.039 15.8802 257.794 15.3203V16.5508ZM264.103 16.8828C263.673 17.0977 263.204 17.2051 262.696 17.2051C261.082 17.2051 260.275 16.2741 260.275 14.4121V8.09375H258.517V7H260.275V4.48047L261.525 4.07031V7H264.103V8.09375H261.525V14.2168C261.525 14.8939 261.635 15.3822 261.857 15.6816C262.078 15.9811 262.452 16.1309 262.98 16.1309C263.37 16.1309 263.745 16.0137 264.103 15.7793V16.8828ZM266.349 17.1953C266.089 17.1953 265.867 17.1042 265.685 16.9219C265.503 16.7396 265.412 16.5182 265.412 16.2578C265.412 15.9909 265.5 15.7663 265.675 15.584C265.858 15.4017 266.082 15.3105 266.349 15.3105C266.479 15.3105 266.6 15.3366 266.711 15.3887C266.828 15.4342 266.929 15.4993 267.013 15.584C267.098 15.6621 267.166 15.7598 267.218 15.877C267.27 15.9941 267.296 16.1211 267.296 16.2578C267.296 16.388 267.27 16.5117 267.218 16.6289C267.166 16.7396 267.098 16.8372 267.013 16.9219C266.929 17.0065 266.828 17.0716 266.711 17.1172C266.6 17.1693 266.479 17.1953 266.349 17.1953Z" fill="#e6edf3"/>
</svg>
