<svg width="114" height="27" viewBox="0 0 114 27" fill="none" xmlns="http://www.w3.org/2000/svg">
<path d="M7.4975 26.8362C16.4943 26.8362 21.414 19.2054 21.414 12.5884C21.414 12.3717 21.4097 12.1559 21.4002 11.9411C22.3552 11.2343 23.1853 10.3522 23.84 9.34803C22.9636 9.74685 22.0205 10.0153 21.0311 10.1364C22.041 9.51644 22.8163 8.53573 23.182 7.3666C22.237 7.94018 21.1904 8.35707 20.0761 8.58211C19.1835 7.60873 17.9128 7 16.5058 7C13.8047 7 11.6142 9.24259 11.6142 12.007C11.6142 12.4 11.6572 12.7822 11.7411 13.1488C7.67584 12.9394 4.0712 10.9467 1.65905 7.91676C1.23898 8.6568 0.996767 9.51644 0.996767 10.4337C0.996767 12.171 1.86026 13.7048 3.17338 14.602C2.37092 14.5767 1.61709 14.3511 0.958144 13.9757C0.957424 13.9967 0.957426 14.0172 0.957426 14.0397C0.957426 16.4648 2.64341 18.4897 4.88153 18.9486C4.47052 19.0633 4.03806 19.1248 3.59177 19.1248C3.27708 19.1248 2.97049 19.0931 2.67249 19.0345C3.2952 21.0242 5.10086 22.4721 7.24171 22.5126C5.56765 23.856 3.45874 24.6561 1.16674 24.6561C0.772425 24.6561 0.382874 24.6332 0 24.5868C2.16469 26.0073 4.7349 26.8362 7.4975 26.8362Z" fill="#1D9BF0"/>
<path d="M43.1562 21.1992C43.1562 24.8711 41.3984 26.707 37.8828 26.707C36.6458 26.707 35.5651 26.4727 34.6406 26.0039V24.4023C35.7669 25.0273 36.8411 25.3398 37.8633 25.3398C40.3242 25.3398 41.5547 24.0312 41.5547 21.4141V20.3203H41.5156C40.7539 21.5964 39.6081 22.2344 38.0781 22.2344C36.8346 22.2344 35.832 21.7917 35.0703 20.9062C34.3151 20.0143 33.9375 18.8197 33.9375 17.3223C33.9375 15.623 34.3444 14.2721 35.1582 13.2695C35.9785 12.2669 37.0983 11.7656 38.5176 11.7656C39.8652 11.7656 40.8646 12.306 41.5156 13.3867H41.5547V12H43.1562V21.1992ZM41.5547 17.4785V16.0039C41.5547 15.2096 41.2845 14.5293 40.7441 13.9629C40.2103 13.3965 39.543 13.1133 38.7422 13.1133C37.7526 13.1133 36.9779 13.4746 36.418 14.1973C35.8581 14.9134 35.5781 15.9193 35.5781 17.2148C35.5781 18.3281 35.8451 19.2201 36.3789 19.8906C36.9193 20.5547 37.6322 20.8867 38.5176 20.8867C39.416 20.8867 40.1452 20.5677 40.7051 19.9297C41.2715 19.2917 41.5547 18.4746 41.5547 17.4785ZM51.2133 13.6211C50.9333 13.4062 50.5297 13.2988 50.0023 13.2988C49.3188 13.2988 48.7458 13.6211 48.2836 14.2656C47.8279 14.9102 47.6 15.7891 47.6 16.9023V22H45.9984V12H47.6V14.0605H47.6391C47.8669 13.3574 48.2152 12.8105 48.684 12.4199C49.1527 12.0228 49.6768 11.8242 50.2563 11.8242C50.6729 11.8242 50.9919 11.8698 51.2133 11.9609V13.6211ZM53.3719 9.46094C53.0854 9.46094 52.8413 9.36328 52.6395 9.16797C52.4376 8.97266 52.3367 8.72526 52.3367 8.42578C52.3367 8.1263 52.4376 7.87891 52.6395 7.68359C52.8413 7.48177 53.0854 7.38086 53.3719 7.38086C53.6648 7.38086 53.9122 7.48177 54.1141 7.68359C54.3224 7.87891 54.4266 8.1263 54.4266 8.42578C54.4266 8.71224 54.3224 8.95638 54.1141 9.1582C53.9122 9.36003 53.6648 9.46094 53.3719 9.46094ZM54.1531 22H52.5516V12H54.1531V22ZM65.0324 17.4004H57.9719C57.9979 18.5137 58.2974 19.373 58.8703 19.9785C59.4432 20.584 60.231 20.8867 61.2336 20.8867C62.3599 20.8867 63.3951 20.5156 64.3391 19.7734V21.2773C63.4602 21.9154 62.298 22.2344 60.8527 22.2344C59.44 22.2344 58.3299 21.7819 57.5227 20.877C56.7154 19.9655 56.3117 18.6862 56.3117 17.0391C56.3117 15.4831 56.7512 14.2168 57.6301 13.2402C58.5155 12.2572 59.6125 11.7656 60.9211 11.7656C62.2297 11.7656 63.2421 12.1888 63.9582 13.0352C64.6743 13.8815 65.0324 15.0566 65.0324 16.5605V17.4004ZM63.3918 16.043C63.3853 15.1185 63.1607 14.3991 62.718 13.8848C62.2818 13.3704 61.673 13.1133 60.8918 13.1133C60.1366 13.1133 59.4953 13.3835 58.968 13.9238C58.4406 14.4642 58.1151 15.1706 57.9914 16.043H63.3918ZM74.9254 12L70.941 22H69.3688L65.5797 12H67.3375L69.8766 19.2656C70.0654 19.7995 70.1826 20.265 70.2281 20.6621H70.2672C70.3323 20.1608 70.4365 19.7083 70.5797 19.3047L73.2359 12H74.9254ZM80.4336 22.2344C78.9557 22.2344 77.7741 21.7689 76.8887 20.8379C76.0098 19.9004 75.5703 18.6602 75.5703 17.1172C75.5703 15.4375 76.0293 14.1257 76.9473 13.1816C77.8652 12.2376 79.1055 11.7656 80.668 11.7656C82.1589 11.7656 83.321 12.2246 84.1543 13.1426C84.9941 14.0605 85.4141 15.3333 85.4141 16.9609C85.4141 18.556 84.9616 19.8353 84.0566 20.7988C83.1582 21.7559 81.9505 22.2344 80.4336 22.2344ZM80.5508 13.1133C79.5221 13.1133 78.7083 13.4648 78.1094 14.168C77.5104 14.8646 77.2109 15.8281 77.2109 17.0586C77.2109 18.2435 77.5137 19.1777 78.1191 19.8613C78.7246 20.5449 79.5352 20.8867 80.5508 20.8867C81.5859 20.8867 82.3802 20.5514 82.9336 19.8809C83.4935 19.2103 83.7734 18.2565 83.7734 17.0195C83.7734 15.7695 83.4935 14.806 82.9336 14.1289C82.3802 13.4518 81.5859 13.1133 80.5508 13.1133ZM95.6586 22H94.057V20.418H94.018C93.3539 21.6289 92.3253 22.2344 90.932 22.2344C88.5492 22.2344 87.3578 20.8151 87.3578 17.9766V12H88.9496V17.7227C88.9496 19.832 89.7569 20.8867 91.3715 20.8867C92.1527 20.8867 92.794 20.6003 93.2953 20.0273C93.8031 19.4479 94.057 18.6927 94.057 17.7617V12H95.6586V22ZM105.473 12.459L99.5555 20.6328H105.415V22H97.202V21.502L103.12 13.3672H97.7586V12H105.473V12.459ZM113.823 24.9004H105.523V23.7383H113.823V24.9004Z" fill="#24292f"/>
</svg>
